<svg width="104" height="104" viewBox="0 0 104 104" fill="none" xmlns="http://www.w3.org/2000/svg">
<rect width="104" height="104" rx="52" fill="url(#paint0_linear_271_2201)"/>
<path d="M32.5 47.5C32.866 47.5 33.208 47.332 33.889 46.99L39.364 44.266C41.788 43.057 43 42.454 43 41.5V29.5M32.5 47.5C32.134 47.5 31.792 47.332 31.111 46.99L25.636 44.266C23.212 43.057 22 42.454 22 41.5V29.5M32.5 47.5V35.5M43 29.5C43 28.546 41.788 27.94 39.364 26.734L33.889 24.01C33.208 23.671 32.869 23.5 32.5 23.5C32.134 23.5 31.792 23.671 31.111 24.01L25.636 26.734C23.212 27.943 22 28.546 22 29.5M43 29.5C43 30.454 41.788 31.06 39.364 32.266L33.889 34.99C33.208 35.329 32.869 35.5 32.5 35.5M22 29.5C22 30.454 23.212 31.06 25.636 32.266L31.111 34.99C31.792 35.329 32.131 35.5 32.5 35.5M71.5 47.5C71.866 47.5 72.208 47.332 72.889 46.99L78.364 44.266C80.788 43.057 82 42.454 82 41.5V29.5M71.5 47.5C71.134 47.5 70.792 47.332 70.111 46.99L64.636 44.266C62.212 43.057 61 42.454 61 41.5V29.5M71.5 47.5V35.5M82 29.5C82 28.546 80.788 27.94 78.364 26.734L72.889 24.01C72.208 23.671 71.869 23.5 71.5 23.5C71.134 23.5 70.792 23.671 70.111 24.01L64.636 26.734C62.212 27.943 61 28.546 61 29.5M82 29.5C82 30.454 80.788 31.06 78.364 32.266L72.889 34.99C72.208 35.329 71.869 35.5 71.5 35.5M61 29.5C61 30.454 62.212 31.06 64.636 32.266L70.111 34.99C70.792 35.329 71.131 35.5 71.5 35.5M50.5 35.5H53.5M22 53.5V64C22 68.212 22 70.321 23.011 71.833C23.4489 72.4884 24.0116 73.0511 24.667 73.489C26.179 74.5 28.288 74.5 32.5 74.5M82 53.5V64C82 68.212 82 70.321 80.989 71.833C80.5511 72.4884 79.9884 73.0511 79.333 73.489C77.821 74.5 75.712 74.5 71.5 74.5M46.75 66.793C47.274 66.787 47.857 66.785 48.499 66.787H55.501C56.141 66.787 56.724 66.789 57.25 66.793M46.75 66.793C44.581 66.823 43.351 66.982 42.526 67.789C41.5 68.794 41.5 70.411 41.5 73.642C41.5 76.876 41.5 78.493 42.526 79.495C43.549 80.5 45.199 80.5 48.499 80.5H55.501C58.801 80.5 60.451 80.5 61.474 79.495C62.5 78.493 62.5 76.876 62.5 73.645C62.5 70.411 62.5 68.794 61.474 67.789C60.649 66.979 59.419 66.823 57.25 66.793M46.75 66.793V61.642C46.75 58.801 49.102 56.5 52 56.5C54.898 56.5 57.25 58.804 57.25 61.642V66.793" stroke="#CA1B8A" stroke-width="3" stroke-linecap="round" stroke-linejoin="round"/>
<defs>
<linearGradient id="paint0_linear_271_2201" x1="52" y1="0" x2="52" y2="104" gradientUnits="userSpaceOnUse">
<stop stop-color="#FFDDF3" stop-opacity="0.61"/>
<stop offset="1" stop-color="#FFE4F5" stop-opacity="0.69"/>
</linearGradient>
</defs>
</svg>
