<svg width="104" height="104" viewBox="0 0 104 104" fill="none" xmlns="http://www.w3.org/2000/svg">
<rect width="104" height="104" rx="52" fill="url(#paint0_linear_271_2157)"/>
<path d="M52 67C52.681 67 53.314 66.682 54.58 66.046L64.75 60.934C69.25 58.672 71.5 57.541 71.5 55.75V33.25M52 67C51.319 67 50.686 66.682 49.42 66.046L39.25 60.934C34.75 58.672 32.5 57.541 32.5 55.75V33.25M52 67V44.5M71.5 33.25C71.5 31.459 69.25 30.328 64.75 28.066L54.58 22.954C53.314 22.318 52.681 22 52 22C51.319 22 50.686 22.318 49.42 22.954L39.25 28.066C34.75 30.328 32.5 31.459 32.5 33.25M71.5 33.25C71.5 35.041 69.25 36.172 64.75 38.434L54.58 43.546C53.314 44.182 52.681 44.5 52 44.5M32.5 33.25C32.5 35.041 34.75 36.172 39.25 38.434L49.42 43.546C50.686 44.182 51.319 44.5 52 44.5M46 78.25C46 76.18 47.68 74.5 49.75 74.5H54.25C56.32 74.5 58 76.18 58 78.25M46 78.25C46 80.32 47.68 82 49.75 82H54.25C56.32 82 58 80.32 58 78.25M46 78.25H31M58 78.25H73" stroke="#03581A" stroke-width="3" stroke-linecap="round" stroke-linejoin="round"/>
<defs>
<linearGradient id="paint0_linear_271_2157" x1="52" y1="0" x2="52" y2="104" gradientUnits="userSpaceOnUse">
<stop stop-color="#E6F1E4"/>
<stop offset="1" stop-color="#BDCEBA"/>
</linearGradient>
</defs>
</svg>
