<svg width="88" height="88" viewBox="0 0 88 88" fill="none" xmlns="http://www.w3.org/2000/svg">
<path d="M3.21064 37.3813C2.86827 37.4659 3.03671 37.8035 2.98102 37.9884C2.83939 38.4593 2.09964 38.6085 1.72908 38.9282C1.36677 39.241 1.15158 39.6061 0.87108 39.9505C0.635268 40.2393 0.341018 40.5239 0.29358 40.8553C0.239955 41.232 0.259205 41.6569 0.43108 42.0172C0.64283 42.4633 0.893768 43.0298 1.24921 43.4265C1.52146 43.7325 1.55927 43.8335 2.01852 43.9944C2.16358 44.0604 2.20002 44.0934 2.39802 44.134L2.43652 43.8913L2.60702 43.6912C2.37808 43.4114 2.03158 43.3853 1.83152 43.1818C1.49739 42.8415 1.38808 42.4936 1.18939 42.1038C0.999643 41.7305 0.75283 41.4452 0.732205 41.0492C0.723955 40.8793 0.649018 40.5748 0.737705 40.4215C0.79683 40.3197 1.07939 40.1912 1.17496 40.0942C1.47196 39.7938 1.33721 39.4136 1.68096 39.1345C1.98621 38.887 2.5032 38.6938 2.86483 38.4662C3.11577 38.3088 3.27046 38.2524 3.32545 38.031C3.38458 37.787 3.19277 37.6062 3.21064 37.3813ZM11.682 37.3813C11.6992 37.6062 11.5074 37.787 11.5672 38.031C11.6215 38.2524 11.7762 38.3088 12.0271 38.4662C12.3888 38.6931 12.9058 38.8863 13.211 39.1345C13.5548 39.4136 13.42 39.7938 13.7163 40.0942C13.8126 40.1912 14.0945 40.3197 14.1536 40.4215C14.243 40.5741 14.168 40.8793 14.1591 41.0492C14.1385 41.4452 13.8916 41.7305 13.7019 42.1038C13.5032 42.4936 13.3946 42.8415 13.0605 43.1818C12.8611 43.3853 12.5139 43.4114 12.285 43.6905L12.4555 43.8913L12.494 44.134C12.692 44.0927 12.7277 44.0604 12.8741 43.9944C13.3327 43.8335 13.3698 43.7325 13.6428 43.4272C13.9982 43.0298 14.2485 42.4633 14.4623 42.0172C14.6328 41.6569 14.6527 41.232 14.5991 40.8553C14.551 40.5239 14.256 40.24 14.0202 39.9505C13.7404 39.6068 13.5252 39.241 13.1629 38.9282C12.793 38.6085 12.0526 38.4593 11.911 37.9884C11.8553 37.8028 12.0237 37.4659 11.682 37.3813ZM7.44496 40.8958C5.97439 40.8958 4.78296 41.3482 4.78296 41.9065C4.78296 42.3946 5.97439 42.2578 7.44496 42.2578C8.91414 42.2578 10.107 42.3692 10.107 41.9072C10.107 41.3482 8.91483 40.8958 7.44496 40.8958ZM6.11808 42.3767C4.59871 42.3767 3.27389 42.9989 2.54858 43.9257C2.49816 44.213 2.4615 44.5061 2.43858 44.805C2.62833 44.8029 6.45496 44.7727 6.79596 45.1095L7.44427 45.7489L8.09258 45.1095C8.43427 44.7727 12.2609 44.8029 12.4506 44.805C12.4283 44.5077 12.3912 44.2117 12.3393 43.9181C11.6126 42.9962 10.2905 42.3767 8.77458 42.3767H6.11808ZM12.4527 44.8311V44.8613C11.3431 44.8503 8.40333 44.882 8.13314 45.1487L7.47795 45.795L7.9042 46.8207L7.47314 52.1461C10.1461 52.1262 12.3241 49.3377 12.4678 45.828C12.472 45.7056 11.9721 45.5736 11.9721 45.4622C11.9721 45.366 12.4726 45.247 12.4692 45.1412C12.4655 45.0377 12.46 44.9343 12.4527 44.8311ZM2.43583 44.8311C2.42896 44.9342 2.42346 45.0376 2.41933 45.1412C2.41589 45.247 2.91708 45.3667 2.91708 45.4629C2.91708 45.5736 2.41658 45.7056 2.42139 45.8273C2.56439 49.3377 4.74377 52.1268 7.41539 52.1468L6.98364 46.8214L6.98639 46.8145L7.41058 45.795L6.75539 45.1487C6.48521 44.8827 3.54614 44.851 2.43652 44.8613L2.43583 44.8311ZM0.894455 45.5564C0.243393 45.5798 0.360955 46.268 0.59608 46.8785C0.867643 47.5832 0.990705 48.325 1.28289 49.0221C1.41696 49.3418 1.61358 49.6546 1.96696 49.746C1.98483 49.3425 1.92296 49.2366 1.67408 48.9362C1.46439 48.6832 1.51596 48.336 1.38396 48.0507C1.21208 47.6773 1.18321 47.302 1.03539 46.9266C0.97008 46.7595 0.636643 46.2577 0.726705 46.0713C0.87933 45.7551 1.16602 46.0679 1.30971 46.171C1.51114 46.3161 1.61908 46.2776 1.86864 46.3099C1.89683 46.3133 2.03914 46.413 2.37052 46.5643L2.33202 46.2137C1.87689 45.9937 1.83702 45.7455 1.33927 45.6162C1.19459 45.5752 1.04482 45.5551 0.894455 45.5564ZM13.9961 45.5564C13.8458 45.5551 13.696 45.5752 13.5513 45.6162C13.0543 45.7455 13.0144 45.9943 12.5593 46.213L12.5208 46.5643C12.8521 46.413 12.9938 46.3133 13.0226 46.3099C13.2722 46.2776 13.3795 46.3168 13.5809 46.171C13.7253 46.0679 14.012 45.7558 14.1639 46.0713C14.2533 46.2577 13.9205 46.7595 13.8552 46.9259C13.7081 47.302 13.6785 47.6773 13.5066 48.0507C13.376 48.336 13.4269 48.6832 13.2165 48.9362C12.9683 49.2359 12.9065 49.3418 12.9243 49.746C13.277 49.6546 13.4743 49.3418 13.6077 49.0221C13.9006 48.325 14.023 47.5832 14.2952 46.8785C14.5303 46.268 14.6479 45.5791 13.9961 45.5564ZM7.44427 45.863L7.04208 46.8303L7.44427 51.7934L7.84646 46.8297L7.44427 45.863ZM3.28558 49.4504C2.96589 49.8773 2.95146 50.2273 2.80433 50.5676C2.55202 51.154 2.79746 51.9481 3.27595 52.3702C3.56608 52.6273 4.03702 52.8308 4.38283 52.9993C4.86271 53.233 5.34533 53.539 5.88158 53.64C6.00052 53.662 6.30302 53.7019 6.20264 53.4716C6.15589 53.3643 5.81489 53.2516 5.71658 53.1966C5.3192 52.9759 4.93283 52.6933 4.56158 52.4232C4.10714 52.0945 3.56471 51.8876 3.20721 51.4332C3.06077 51.2475 3.03739 51.1973 3.07177 50.9835C3.10545 50.78 3.13639 50.5449 3.17902 50.3407C3.22714 50.1104 3.29589 49.8883 3.41827 49.6814L3.28558 49.4504ZM11.6057 49.4504L11.473 49.6814C11.5961 49.8877 11.6641 50.1104 11.7123 50.3407C11.7556 50.5449 11.7865 50.78 11.8195 50.9835C11.8539 51.1973 11.8312 51.2475 11.6848 51.4332C11.3273 51.8876 10.7848 52.0945 10.3304 52.4232C9.95914 52.6933 9.57208 52.9759 9.17471 53.1973C9.07639 53.2523 8.73539 53.3643 8.68864 53.4716C8.58827 53.7019 8.89008 53.662 9.00902 53.64C9.54595 53.539 10.0293 53.233 10.5091 52.9993C10.8543 52.8308 11.3259 52.628 11.616 52.3702C12.0945 51.9481 12.3393 51.154 12.087 50.5676C11.9405 50.2266 11.9254 49.8773 11.6057 49.4504Z" fill="#F39914"/>
<path d="M7.44633 34.342C6.66293 34.343 5.91187 34.6546 5.35792 35.2085C4.80397 35.7625 4.49236 36.5135 4.49146 37.2969C4.49218 38.0804 4.80371 38.8317 5.35768 39.3858C5.91165 39.9399 6.66281 40.2516 7.44633 40.2525C8.22985 40.2516 8.98101 39.9399 9.53498 39.3858C10.0889 38.8317 10.4005 38.0804 10.4012 37.2969C10.4003 36.5135 10.0887 35.7625 9.53474 35.2085C8.98079 34.6546 8.22973 34.343 7.44633 34.342ZM7.44633 34.4383C8.20437 34.4387 8.93126 34.7399 9.46728 35.276C10.0033 35.812 10.3046 36.5389 10.305 37.2969C10.3046 38.055 10.0033 38.7818 9.46728 39.3179C8.93126 39.8539 8.20437 40.1552 7.44633 40.1555C6.68841 40.155 5.96169 39.8536 5.42582 39.3176C4.88996 38.7816 4.58876 38.0548 4.58839 37.2969C4.58894 36.5391 4.89022 35.8125 5.42607 35.2767C5.96192 34.7408 6.68853 34.4388 7.44633 34.4383ZM6.11671 35.968V38.6279H8.77596V35.968H6.16002H6.11671ZM6.16002 36.012H6.98846V36.8404H6.16002V36.012ZM7.03246 36.012H7.86089V36.8404H7.03246V36.012ZM7.9042 36.012H8.73264V36.8404H7.9042V36.012ZM7.44633 36.1206C7.36537 36.1206 7.28773 36.1528 7.23049 36.21C7.17324 36.2673 7.14108 36.3449 7.14108 36.4259C7.14108 36.4659 7.14898 36.5056 7.16432 36.5427C7.17966 36.5797 7.20214 36.6134 7.23049 36.6417C7.25883 36.67 7.29248 36.6925 7.32952 36.7079C7.36655 36.7232 7.40624 36.7311 7.44633 36.7311C7.48642 36.7311 7.52611 36.7232 7.56314 36.7079C7.60018 36.6925 7.63383 36.67 7.66217 36.6417C7.69052 36.6134 7.713 36.5797 7.72834 36.5427C7.74368 36.5056 7.75158 36.4659 7.75158 36.4259C7.75158 36.3449 7.71942 36.2673 7.66217 36.21C7.60493 36.1528 7.52729 36.1206 7.44633 36.1206ZM6.16071 36.8837H6.98846V37.7122H6.16002L6.16071 36.8837ZM7.03246 36.8837H7.86089V37.7122H7.03246V36.8837ZM7.9042 36.8837H8.73264V37.7122H7.9042V36.8837ZM8.31808 36.9924C8.23724 36.9925 8.15978 37.0248 8.10268 37.082C8.04558 37.1392 8.01352 37.2168 8.01352 37.2976C8.01352 37.3784 8.04558 37.456 8.10268 37.5132C8.15978 37.5704 8.23724 37.6027 8.31808 37.6029C8.39904 37.6029 8.47668 37.5707 8.53392 37.5134C8.59117 37.4562 8.62333 37.3786 8.62333 37.2976C8.62333 37.2166 8.59117 37.139 8.53392 37.0818C8.47668 37.0245 8.39904 36.9924 8.31808 36.9924ZM6.16002 37.7555H6.98846V38.5839H6.16002V37.7555ZM7.03246 37.7555H7.86089V38.5839H7.03246V37.7555ZM7.9042 37.7555H8.73264V38.5839H7.9042V37.7555ZM6.57458 37.8648C6.53449 37.8648 6.4948 37.8727 6.45777 37.888C6.42073 37.9034 6.38708 37.9259 6.35874 37.9542C6.33039 37.9825 6.30791 38.0162 6.29257 38.0532C6.27723 38.0903 6.26933 38.13 6.26933 38.17C6.26933 38.2101 6.27723 38.2498 6.29257 38.2869C6.30791 38.3239 6.33039 38.3575 6.35874 38.3859C6.38708 38.4142 6.42073 38.4367 6.45777 38.4521C6.4948 38.4674 6.53449 38.4753 6.57458 38.4753C6.65554 38.4753 6.73318 38.4431 6.79042 38.3859C6.84767 38.3286 6.87983 38.251 6.87983 38.17C6.87983 38.0891 6.84767 38.0114 6.79042 37.9542C6.73318 37.897 6.65554 37.8648 6.57458 37.8648ZM7.44633 37.8648C7.40624 37.8648 7.36655 37.8727 7.32952 37.888C7.29248 37.9034 7.25883 37.9259 7.23049 37.9542C7.20214 37.9825 7.17966 38.0162 7.16432 38.0532C7.14898 38.0903 7.14108 38.13 7.14108 38.17C7.14108 38.2101 7.14898 38.2498 7.16432 38.2869C7.17966 38.3239 7.20214 38.3575 7.23049 38.3859C7.25883 38.4142 7.29248 38.4367 7.32952 38.4521C7.36655 38.4674 7.40624 38.4753 7.44633 38.4753C7.52729 38.4753 7.60493 38.4431 7.66217 38.3859C7.71942 38.3286 7.75158 38.251 7.75158 38.17C7.75158 38.0891 7.71942 38.0114 7.66217 37.9542C7.60493 37.897 7.52729 37.8648 7.44633 37.8648ZM8.31877 37.8648C8.23781 37.8648 8.16017 37.897 8.10292 37.9542C8.04568 38.0114 8.01352 38.0891 8.01352 38.17C8.01352 38.251 8.04568 38.3286 8.10292 38.3859C8.16017 38.4431 8.23781 38.4753 8.31877 38.4753C8.39973 38.4753 8.47737 38.4431 8.53461 38.3859C8.59186 38.3286 8.62402 38.251 8.62402 38.17C8.62402 38.0891 8.59186 38.0114 8.53461 37.9542C8.47737 37.897 8.39973 37.8648 8.31877 37.8648Z" fill="#162284"/>
<path d="M84.7895 37.3813C85.1318 37.4659 84.9627 37.8035 85.0184 37.9884C85.16 38.4593 85.9005 38.6085 86.2703 38.9282C86.6326 39.241 86.8485 39.6061 87.1283 39.9505C87.3642 40.2393 87.6591 40.5239 87.7058 40.8553C87.7601 41.232 87.7402 41.6569 87.569 42.0172C87.3566 42.4633 87.1063 43.0298 86.7509 43.4265C86.478 43.7325 86.4402 43.8335 85.9816 43.9944C85.8358 44.0604 85.8001 44.0934 85.6021 44.134L85.5629 43.8913L85.3931 43.6912C85.6213 43.4114 85.9685 43.3853 86.1686 43.1818C86.5027 42.8415 86.6113 42.4936 86.81 42.1038C86.9998 41.7305 87.2473 41.4452 87.2672 41.0492C87.2761 40.8793 87.3511 40.5748 87.2617 40.4215C87.2026 40.3197 86.9207 40.1912 86.8245 40.0942C86.5281 39.7938 86.6622 39.4136 86.3191 39.1345C86.0139 38.887 85.4969 38.6938 85.1346 38.4662C84.8836 38.3088 84.729 38.2524 84.6747 38.031C84.6155 37.787 84.8073 37.6062 84.7895 37.3813ZM76.3181 37.3813C76.3009 37.6062 76.492 37.787 76.4329 38.031C76.3786 38.2524 76.2239 38.3088 75.9723 38.4662C75.6106 38.6931 75.0936 38.8863 74.7884 39.1345C74.4453 39.4136 74.5801 39.7938 74.2831 40.0942C74.1868 40.1912 73.905 40.3197 73.8458 40.4215C73.7565 40.5741 73.8321 40.8793 73.8403 41.0492C73.861 41.4452 74.1078 41.7305 74.2975 42.1038C74.4962 42.4936 74.6055 42.8415 74.939 43.1818C75.139 43.3853 75.4855 43.4114 75.7145 43.6905L75.5447 43.8913L75.5055 44.134C75.3081 44.0927 75.2717 44.0604 75.126 43.9944C74.6674 43.8335 74.6296 43.7325 74.3566 43.4272C74.0012 43.0298 73.751 42.4633 73.5378 42.0172C73.3666 41.6569 73.3474 41.232 73.401 40.8553C73.4485 40.5239 73.7434 40.24 73.9792 39.9505C74.259 39.6068 74.4749 39.241 74.8372 38.9282C75.2071 38.6085 75.9475 38.4593 76.0892 37.9884C76.1442 37.8028 75.9757 37.4659 76.3181 37.3813ZM80.5551 40.8958C82.025 40.8958 83.2165 41.3482 83.2165 41.9065C83.2165 42.3946 82.025 42.2578 80.5551 42.2578C79.0853 42.2578 77.8932 42.3692 77.8932 41.9072C77.8932 41.3482 79.0853 40.8958 80.5551 40.8958ZM81.882 42.3767C83.4007 42.3767 84.7262 42.9989 85.4515 43.9257C85.5019 44.213 85.5386 44.5061 85.5615 44.805C85.3718 44.8029 81.5451 44.7727 81.2035 45.1095L80.5551 45.7489L79.9068 45.1095C79.5658 44.7727 75.7385 44.8029 75.5495 44.805C75.5719 44.5034 75.609 44.2078 75.6608 43.9181C76.3868 42.9962 77.7096 42.3767 79.2248 42.3767H81.882ZM75.5474 44.8311V44.8613C76.657 44.8503 79.5968 44.882 79.8663 45.1487L80.5215 45.795L80.0952 46.8207L80.5263 52.1461C77.854 52.1262 75.6753 49.3377 75.5323 45.828C75.5275 45.7056 76.0273 45.5736 76.0273 45.4622C76.0273 45.366 75.5268 45.247 75.5302 45.1412C75.5343 45.0371 75.5401 44.9338 75.5474 44.8311ZM85.5636 44.8311C85.5709 44.9342 85.5764 45.0376 85.5801 45.1412C85.5835 45.247 85.083 45.3667 85.083 45.4629C85.083 45.5736 85.5835 45.7056 85.578 45.8273C85.435 49.3377 83.2563 52.1268 80.584 52.1468L81.0158 46.8214L81.013 46.8145L80.5888 45.795L81.244 45.1487C81.5142 44.8827 84.4533 44.851 85.5629 44.8613L85.5636 44.8311ZM87.105 45.5564C87.756 45.5798 87.6385 46.268 87.4033 46.8785C87.1318 47.5832 87.0094 48.325 86.7172 49.0221C86.5825 49.3418 86.3858 49.6546 86.0325 49.746C86.0146 49.3425 86.0765 49.2366 86.3253 48.9362C86.5357 48.6832 86.4841 48.336 86.6155 48.0507C86.7873 47.6773 86.8169 47.302 86.964 46.9266C87.0293 46.7595 87.3628 46.2577 87.2734 46.0713C87.1208 45.7551 86.8334 46.0679 86.6904 46.171C86.4883 46.3161 86.381 46.2776 86.1308 46.3099C86.1033 46.3133 85.961 46.413 85.6289 46.5643L85.6681 46.2137C86.1225 45.9937 86.1631 45.7455 86.6602 45.6162C86.8371 45.5718 86.9853 45.5518 87.105 45.5564ZM74.0033 45.5564C74.1243 45.5523 74.2714 45.5702 74.4488 45.6162C74.9458 45.7455 74.985 45.9943 75.4402 46.213L75.4793 46.5643C75.1473 46.413 75.005 46.3133 74.9775 46.3099C74.7279 46.2776 74.62 46.3168 74.4185 46.171C74.2748 46.0679 73.9882 45.7558 73.8355 46.0713C73.7462 46.2577 74.0796 46.7595 74.1449 46.9259C74.292 47.302 74.3216 47.6773 74.4928 48.0507C74.6241 48.336 74.5732 48.6832 74.7829 48.9362C75.0318 49.2359 75.093 49.3418 75.0758 49.746C74.7224 49.6546 74.5258 49.3418 74.3917 49.0221C74.0995 48.325 73.9765 47.5832 73.7049 46.8785C73.4691 46.268 73.3522 45.5791 74.0033 45.5564ZM80.5551 45.863L80.958 46.8303L80.5551 51.7934L80.153 46.8297L80.5551 45.863ZM84.7145 49.4504C85.0335 49.8773 85.0486 50.2273 85.1958 50.5676C85.4474 51.154 85.2027 51.9481 84.7235 52.3702C84.434 52.6273 83.9624 52.8308 83.6166 52.9993C83.1367 53.233 82.6541 53.539 82.1178 53.64C81.9989 53.662 81.6964 53.7019 81.7975 53.4716C81.8442 53.3643 82.1845 53.2516 82.2828 53.1966C82.6809 52.9759 83.0666 52.6933 83.4378 52.4232C83.8923 52.0945 84.4354 51.8876 84.7929 51.4332C84.9393 51.2475 84.9627 51.1973 84.9276 50.9835C84.8946 50.78 84.863 50.5449 84.8204 50.3407C84.7776 50.1092 84.6968 49.8865 84.5811 49.6814L84.7145 49.4504ZM76.3937 49.4504L76.5264 49.6814C76.404 49.8877 76.336 50.1104 76.2871 50.3407C76.2445 50.5449 76.2129 50.78 76.1799 50.9835C76.1455 51.1973 76.1689 51.2475 76.3146 51.4332C76.6721 51.8876 77.2153 52.0945 77.669 52.4232C78.0403 52.6933 78.4273 52.9759 78.8254 53.1973C78.9237 53.2523 79.264 53.3643 79.3108 53.4716C79.4111 53.7019 79.1093 53.662 78.9904 53.64C78.4535 53.539 77.9701 53.233 77.4903 52.9993C77.1451 52.8308 76.6735 52.628 76.3841 52.3702C75.9049 51.9481 75.6601 51.154 75.9125 50.5676C76.0596 50.2266 76.074 49.8773 76.3937 49.4504Z" fill="#F39914"/>
<path d="M80.5545 34.342C81.3379 34.343 82.0889 34.6546 82.6429 35.2085C83.1968 35.7625 83.5084 36.5135 83.5094 37.2969C83.5094 38.9263 82.1838 40.2525 80.5545 40.2525C78.9251 40.2525 77.5996 38.927 77.5996 37.2969C77.6005 36.5135 77.9121 35.7625 78.4661 35.2085C79.02 34.6546 79.7711 34.343 80.5545 34.342ZM80.5545 34.4383C79.7966 34.4388 79.0698 34.7402 78.534 35.2762C77.9981 35.8122 77.6969 36.539 77.6965 37.2969C77.6969 38.0548 77.9981 38.7816 78.534 39.3176C79.0698 39.8536 79.7966 40.155 80.5545 40.1555C81.3125 40.1552 82.0394 39.8539 82.5754 39.3179C83.1115 38.7818 83.4127 38.055 83.4131 37.2969C83.4126 36.539 83.1112 35.8123 82.5752 35.2764C82.0392 34.7405 81.3124 34.4387 80.5545 34.4383ZM81.8841 35.968V38.6279H79.2249V35.968H81.8408H81.8841ZM81.8408 36.012H81.0123V36.8404H81.8408V36.012ZM80.969 36.012H80.1399V36.8404H80.969V36.012ZM80.0966 36.012H79.2689V36.8404H80.0973L80.0966 36.012ZM80.5545 36.1206C80.6354 36.1206 80.7131 36.1528 80.7703 36.21C80.8276 36.2673 80.8597 36.3449 80.8597 36.4259C80.8597 36.4659 80.8518 36.5056 80.8365 36.5427C80.8211 36.5797 80.7987 36.6134 80.7703 36.6417C80.742 36.67 80.7083 36.6925 80.6713 36.7079C80.6343 36.7232 80.5946 36.7311 80.5545 36.7311C80.5144 36.7311 80.4747 36.7232 80.4377 36.7079C80.4006 36.6925 80.367 36.67 80.3386 36.6417C80.3103 36.6134 80.2878 36.5797 80.2725 36.5427C80.2571 36.5056 80.2492 36.4659 80.2492 36.4259C80.2492 36.3449 80.2814 36.2673 80.3386 36.21C80.3959 36.1528 80.4735 36.1206 80.5545 36.1206ZM81.8401 36.8837H81.0123V37.7122H81.8408L81.8401 36.8837ZM80.9684 36.8837H80.1399V37.7122H80.9684V36.8837ZM80.0966 36.8837H79.2689V37.7122H80.0973L80.0966 36.8837ZM79.6827 36.9924C79.7637 36.9924 79.8413 37.0245 79.8986 37.0818C79.9558 37.139 79.988 37.2166 79.988 37.2976C79.988 37.3786 79.9558 37.4562 79.8986 37.5134C79.8413 37.5707 79.7637 37.6029 79.6827 37.6029C79.6018 37.6029 79.5241 37.5707 79.4669 37.5134C79.4096 37.4562 79.3775 37.3786 79.3775 37.2976C79.3775 37.2166 79.4096 37.139 79.4669 37.0818C79.5241 37.0245 79.6018 36.9924 79.6827 36.9924ZM81.8408 37.7555H81.0123V38.5839H81.8408V37.7555ZM80.9684 37.7555H80.1399V38.5839H80.9684V37.7555ZM80.0966 37.7555H79.2682V38.5839H80.0966V37.7555ZM81.4262 37.8648C81.5072 37.8648 81.5848 37.897 81.6421 37.9542C81.6993 38.0114 81.7315 38.0891 81.7315 38.17C81.7315 38.251 81.6993 38.3286 81.6421 38.3859C81.5848 38.4431 81.5072 38.4753 81.4262 38.4753C81.3453 38.4753 81.2676 38.4431 81.2104 38.3859C81.1531 38.3286 81.121 38.251 81.121 38.17C81.121 38.0891 81.1531 38.0114 81.2104 37.9542C81.2676 37.897 81.3453 37.8648 81.4262 37.8648ZM80.5545 37.8648C80.6354 37.8648 80.7131 37.897 80.7703 37.9542C80.8276 38.0114 80.8597 38.0891 80.8597 38.17C80.8597 38.251 80.8276 38.3286 80.7703 38.3859C80.7131 38.4431 80.6354 38.4753 80.5545 38.4753C80.5144 38.4753 80.4747 38.4674 80.4377 38.4521C80.4006 38.4367 80.367 38.4142 80.3386 38.3859C80.3103 38.3575 80.2878 38.3239 80.2725 38.2869C80.2571 38.2498 80.2492 38.2101 80.2492 38.17C80.2492 38.13 80.2571 38.0903 80.2725 38.0532C80.2878 38.0162 80.3103 37.9825 80.3386 37.9542C80.367 37.9259 80.4006 37.9034 80.4377 37.888C80.4747 37.8727 80.5144 37.8648 80.5545 37.8648ZM79.682 37.8648C79.763 37.8648 79.8406 37.897 79.8979 37.9542C79.9551 38.0114 79.9873 38.0891 79.9873 38.17C79.9873 38.251 79.9551 38.3286 79.8979 38.3859C79.8406 38.4431 79.763 38.4753 79.682 38.4753C79.6011 38.4753 79.5234 38.4431 79.4662 38.3859C79.409 38.3286 79.3768 38.251 79.3768 38.17C79.3768 38.0891 79.409 38.0114 79.4662 37.9542C79.5234 37.897 79.6011 37.8648 79.682 37.8648ZM44.0056 36.5166C43.8671 36.5127 43.7293 36.5365 43.6002 36.5868C43.4711 36.637 43.3534 36.7126 43.2541 36.8092C43.1547 36.9057 43.0757 37.0212 43.0218 37.1488C42.9678 37.2763 42.94 37.4135 42.94 37.552C42.9364 37.6902 42.9606 37.8278 43.011 37.9566C43.0615 38.0854 43.1372 38.2027 43.2337 38.3018C43.3302 38.4008 43.4456 38.4795 43.5731 38.5333C43.7005 38.587 43.8374 38.6147 43.9757 38.6147C44.114 38.6147 44.2509 38.587 44.3783 38.5333C44.5058 38.4795 44.6212 38.4008 44.7177 38.3018C44.8142 38.2027 44.8899 38.0854 44.9404 37.9566C44.9908 37.8278 45.015 37.6902 45.0114 37.552C45.0114 37.2825 44.9063 37.0236 44.7185 36.8303C44.5307 36.637 44.275 36.5245 44.0056 36.5166ZM24.0399 40.6389C20.8719 40.6389 18.7585 42.9131 18.7585 46.0612C18.7585 49.0264 20.9125 51.4842 24.0399 51.4842C24.7302 51.4842 25.6432 51.423 26.4352 51.0579L26.2929 49.3509C25.7044 49.7365 24.8924 49.94 24.2427 49.94C21.7856 49.94 20.7901 47.9092 20.7901 46.0612C20.7901 44.0908 21.9877 42.1816 24.1204 42.1816C24.7295 42.1816 25.461 42.3246 26.1925 42.6285L26.3547 41.0445C25.8068 40.821 24.812 40.6389 24.0399 40.6389ZM34.1455 40.6389C32.8255 40.6389 31.6884 41.0445 30.7334 41.6137L30.8359 43.2383C31.6072 42.5886 32.7643 42.1816 33.8402 42.1816C35.7494 42.1816 36.3998 43.096 36.3998 44.8835C35.6484 44.8422 35.121 44.8429 34.3696 44.8429C32.3999 44.8429 29.5557 45.6555 29.5557 48.255C29.5557 50.51 31.1191 51.4849 33.3535 51.4849C35.0997 51.4849 36.1159 50.5292 36.5627 49.9002H36.6026V51.2408H38.3901C38.3489 50.9355 38.3097 50.3883 38.3097 49.2099V44.924C38.3097 42.1005 37.1107 40.6389 34.1455 40.6389ZM54.072 40.6389C52.9754 40.6389 51.8782 41.4102 51.3701 42.4869H51.3302V40.8822H49.5427V51.2394H51.4519V46.5273C51.4519 43.9279 52.5684 42.3033 54.2748 42.3033C54.6 42.3033 54.9864 42.3432 55.3315 42.4855V40.7805C54.9259 40.6994 54.6405 40.6389 54.072 40.6389ZM63.9335 40.6389C60.7655 40.6389 58.6535 42.9131 58.6535 46.0612C58.6535 49.0264 60.8054 51.4842 63.9335 51.4842C67.041 51.4842 69.1942 49.0264 69.1942 46.0612C69.1942 42.9131 67.0815 40.6389 63.9335 40.6389ZM43.0197 40.8822V51.2394H44.9289V40.8822H43.0197ZM63.9335 42.1816C65.9644 42.1816 67.1627 44.0908 67.1627 46.0612C67.1627 47.9092 66.1672 49.94 63.9335 49.94C61.6792 49.94 60.6837 47.9092 60.6837 46.0612C60.6837 44.0908 61.882 42.1816 63.9335 42.1816ZM35.1822 46.264C35.5879 46.264 35.9935 46.3052 36.4005 46.3052V47.2182C36.4005 48.7617 35.405 49.9407 33.5157 49.9407C32.6426 49.9407 31.5866 49.3515 31.5866 48.255C31.5866 46.4269 34.1469 46.264 35.1822 46.264Z" fill="#162284"/>
</svg>
