<svg width="88" height="88" viewBox="0 0 88 88" fill="none" xmlns="http://www.w3.org/2000/svg">
<g clip-path="url(#clip0_114_408)">
<path d="M67.375 0H20.625C9.23413 0 0 9.23413 0 20.625V67.375C0 78.7659 9.23413 88 20.625 88H67.375C78.7659 88 88 78.7659 88 67.375V20.625C88 9.23413 78.7659 0 67.375 0Z" fill="#00B4E0"/>
<path d="M13.9219 38.9243C13.7844 38.9243 13.75 38.8555 13.8188 38.7524L14.5406 37.8243C14.6094 37.7212 14.7813 37.6524 14.9188 37.6524H27.1906C27.3281 37.6524 27.3625 37.7556 27.2938 37.8587L26.7094 38.7524C26.6406 38.8555 26.4687 38.9587 26.3656 38.9587L13.9219 38.9243ZM8.73125 42.0868C8.59375 42.0868 8.55938 42.018 8.62813 41.9149L9.35 40.9868C9.41875 40.8837 9.59062 40.8149 9.72812 40.8149H25.4031C25.5406 40.8149 25.6094 40.918 25.575 41.0212L25.3 41.8462C25.2656 41.9837 25.1281 42.0524 24.9906 42.0524L8.73125 42.0868ZM17.05 45.2493C16.9125 45.2493 16.8781 45.1462 16.9469 45.043L17.4281 44.1837C17.4969 44.0805 17.6344 43.9774 17.7719 43.9774H24.6469C24.7844 43.9774 24.8531 44.0806 24.8531 44.2181L24.7844 45.043C24.7844 45.1805 24.6469 45.2837 24.5438 45.2837L17.05 45.2493ZM52.7312 38.3055C50.5656 38.8555 49.0875 39.268 46.9563 39.818C46.4406 39.9555 46.4062 39.9899 45.9594 39.4743C45.4437 38.8899 45.0656 38.5118 44.3438 38.168C42.1781 37.1024 40.0813 37.4118 38.1219 38.6837C35.7844 40.1962 34.5812 42.4305 34.6156 45.2149C34.65 47.9649 36.5406 50.2337 39.2562 50.6118C41.5938 50.9212 43.5531 50.0962 45.1 48.3431C45.4094 47.9649 45.6844 47.5524 46.0281 47.0712H39.3937C38.6719 47.0712 38.5 46.6243 38.7406 46.0399C39.1875 44.9743 40.0125 43.1868 40.4938 42.293C40.5969 42.0868 40.8375 41.743 41.3531 41.743H53.8656C53.7969 42.6712 53.7969 43.5993 53.6594 44.5274C53.2813 47.0024 52.3531 49.2712 50.8406 51.2649C48.3656 54.5306 45.1344 56.5587 41.0438 57.1087C37.675 57.5556 34.5469 56.9024 31.7969 54.8399C29.2531 52.9149 27.8094 50.3712 27.4313 47.2087C26.9844 43.4618 28.0844 40.093 30.3531 37.1368C32.7938 33.9399 36.025 31.9118 39.9781 31.1899C43.2094 30.6055 46.3031 30.9837 49.0875 32.8743C50.9094 34.0774 52.2156 35.7274 53.075 37.7212C53.2812 38.0306 53.1437 38.2024 52.7312 38.3055Z" fill="white"/>
<path d="M64.1093 57.3147C60.9812 57.246 58.1281 56.3522 55.7218 54.2897C53.6937 52.5366 52.4218 50.3022 52.0093 47.6554C51.3906 43.771 52.4562 40.3335 54.7937 37.2741C57.303 33.9741 60.328 32.2554 64.4187 31.5335C67.9249 30.9147 71.2249 31.2585 74.2155 33.2866C76.9312 35.1429 78.6155 37.6522 79.0624 40.9522C79.6468 45.5929 78.3062 49.3741 75.1093 52.6054C72.8405 54.9085 70.0562 56.3522 66.8593 57.0054C65.9312 57.1772 65.003 57.2116 64.1093 57.3147ZM72.2906 43.4272C72.2562 42.9804 72.2562 42.6366 72.1874 42.2929C71.5687 38.8897 68.4406 36.9647 65.1749 37.721C61.9781 38.4429 59.9156 40.471 59.1593 43.7022C58.5406 46.3835 59.8468 49.0991 62.3218 50.1991C64.2124 51.0241 66.1031 50.921 67.9249 49.9929C70.6406 48.5835 72.1187 46.3835 72.2906 43.4272Z" fill="white"/>
</g>
<defs>
<clipPath id="clip0_114_408">
<rect width="88" height="88" fill="white"/>
</clipPath>
</defs>
</svg>
