<svg width="80" height="80" viewBox="0 0 80 80" fill="none" xmlns="http://www.w3.org/2000/svg">
<rect width="80" height="80" rx="8" fill="#AE0027"/>
<path d="M47.9946 47.9173V51.6666C47.9946 58.7386 47.9946 62.272 45.6506 64.4693C43.3093 66.6666 39.536 66.6666 31.9946 66.6666C24.4533 66.6666 20.68 66.6666 18.3386 64.4693C15.9946 62.2746 15.9946 58.736 15.9946 51.6693V38.8106C15.9946 31.7386 15.9946 28.2026 18.3386 26.0053C19.8906 24.552 21.9333 24.1493 23.9946 24.04M31.9946 58.6666H32.0186" stroke="#FCF7F2" stroke-width="1.5" stroke-linecap="round" stroke-linejoin="round"/>
<path d="M47.9946 17.3333C42.376 14.1813 38.9946 13.5733 34.6613 13.3333C32.936 13.6453 32.392 14.2693 31.9946 16V32C31.9813 34.4373 32.5226 35.3493 34.6613 36C40.4666 36.928 43.248 37.768 47.6666 39.8453C47.8746 39.944 48.12 39.9466 48.3306 39.856C52.5946 38.0266 55.3493 37.0026 58.512 36.408C60.3706 36.0613 62.68 36.0346 63.6 34.3866C63.9253 33.808 64.0346 33.0586 63.9946 32V16C63.4506 14.2826 62.8666 13.704 61.328 13.3333C56.6453 13.592 53.8133 14.2533 47.9946 17.3333ZM47.9946 17.3333V38.6666" stroke="#FCF7F2" stroke-width="1.5" stroke-linecap="round" stroke-linejoin="round"/>
</svg>
