<svg width="104" height="104" viewBox="0 0 104 104" fill="none" xmlns="http://www.w3.org/2000/svg">
<rect width="104" height="104" rx="52" fill="url(#paint0_linear_271_2179)"/>
<path d="M32.5 46C32.866 46 33.208 45.829 33.889 45.49L39.364 42.766C41.788 41.557 43 40.954 43 40V28M32.5 46C32.134 46 31.792 45.829 31.111 45.49L25.636 42.766C23.212 41.557 22 40.954 22 40V28M32.5 46V34M43 28C43 27.046 41.788 26.44 39.364 25.234L33.889 22.51C33.208 22.171 32.869 22 32.5 22C32.134 22 31.792 22.171 31.111 22.51L25.636 25.234C23.212 26.443 22 27.046 22 28M43 28C43 28.954 41.788 29.56 39.364 30.766L33.889 33.49C33.208 33.829 32.869 34 32.5 34M22 28C22 28.954 23.212 29.56 25.636 30.766L31.111 33.49C31.792 33.829 32.131 34 32.5 34M71.5 46C71.866 46 72.208 45.829 72.889 45.49L78.364 42.766C80.788 41.557 82 40.954 82 40V28M71.5 46C71.134 46 70.792 45.829 70.111 45.49L64.636 42.766C62.212 41.557 61 40.954 61 40V28M71.5 46V34M82 28C82 27.046 80.788 26.44 78.364 25.234L72.889 22.51C72.208 22.171 71.869 22 71.5 22C71.134 22 70.792 22.171 70.111 22.51L64.636 25.234C62.212 26.443 61 27.046 61 28M82 28C82 28.954 80.788 29.56 78.364 30.766L72.889 33.49C72.208 33.829 71.869 34 71.5 34M61 28C61 28.954 62.212 29.56 64.636 30.766L70.111 33.49C70.792 33.829 71.131 34 71.5 34M50.5 34H53.5M22 52V62.5C22 66.712 22 68.821 23.011 70.333C23.4489 70.9884 24.0116 71.5511 24.667 71.989C26.179 73 28.288 73 32.5 73M82 52V62.5C82 66.712 82 68.821 80.989 70.333C80.5511 70.9884 79.9884 71.5511 79.333 71.989C77.821 73 75.712 73 71.5 73M52 82C52.366 82 52.708 81.832 53.389 81.49L58.864 78.766C61.288 77.56 62.5 76.954 62.5 76V64M52 82C51.634 82 51.292 81.832 50.611 81.49L45.136 78.766C42.712 77.56 41.5 76.954 41.5 76V64M52 82V70M62.5 64C62.5 63.046 61.288 62.44 58.864 61.234L53.389 58.51C52.708 58.168 52.369 58 52 58C51.634 58 51.292 58.168 50.611 58.51L45.136 61.234C42.712 62.44 41.5 63.046 41.5 64M62.5 64C62.5 64.954 61.288 65.56 58.864 66.766L53.389 69.49C52.708 69.832 52.369 70 52 70M41.5 64C41.5 64.954 42.712 65.56 45.136 66.766L50.611 69.49C51.292 69.832 51.631 70 52 70" stroke="#FF6B01" stroke-width="3" stroke-linecap="round" stroke-linejoin="round"/>
<defs>
<linearGradient id="paint0_linear_271_2179" x1="52" y1="0" x2="52" y2="104" gradientUnits="userSpaceOnUse">
<stop stop-color="#FEEDD9"/>
<stop offset="1" stop-color="#FFD6C5"/>
</linearGradient>
</defs>
</svg>
