<svg width="88" height="88" viewBox="0 0 88 88" fill="none" xmlns="http://www.w3.org/2000/svg">
<path d="M67.375 0H20.625C9.23413 0 0 9.23413 0 20.625V67.375C0 78.7659 9.23413 88 20.625 88H67.375C78.7659 88 88 78.7659 88 67.375V20.625C88 9.23413 78.7659 0 67.375 0Z" fill="#EED741"/>
<path d="M23.1385 73.539L29.8726 69.4635C31.172 71.767 32.3538 73.7161 35.1887 73.7161C37.906 73.7161 39.6193 72.6532 39.6193 68.5186V40.4005H47.8892V68.6354C47.8892 77.2007 42.8684 81.0995 35.5431 81.0995C28.9276 81.0995 25.0876 77.6733 23.1382 73.5383M52.381 72.6528L59.1144 68.7544C60.8871 71.6491 63.1909 73.7755 67.2664 73.7755C70.6933 73.7755 72.8781 72.0623 72.8781 69.6993C72.8781 66.8641 70.6334 65.8597 66.8529 64.2062L64.7859 63.3197C58.8194 60.7801 54.8615 57.5901 54.8615 50.856C54.8615 44.6534 59.5874 39.9275 66.9715 39.9275C72.2288 39.9275 76.0093 41.759 78.7263 46.5436L72.2876 50.6786C70.8696 48.1386 69.3344 47.1346 66.9715 47.1346C64.5494 47.1346 63.0135 48.6704 63.0135 50.6786C63.0135 53.1595 64.5494 54.1639 68.0935 55.7001L70.1608 56.586C77.1901 59.5989 81.1481 62.67 81.1481 69.5811C81.1481 77.0247 75.3002 81.1002 67.4438 81.1002C59.7647 81.1002 54.8027 77.4378 52.381 72.6528Z" fill="#323330"/>
</svg>
