<svg width="70" height="86" viewBox="0 0 70 86" fill="none" xmlns="http://www.w3.org/2000/svg">
<path d="M35.0002 38.0502C38.5314 38.0502 41.3939 35.1876 41.3939 31.6564C41.3939 28.1253 38.5314 25.2627 35.0002 25.2627C31.469 25.2627 28.6064 28.1253 28.6064 31.6564C28.6064 35.1876 31.469 38.0502 35.0002 38.0502Z" fill="#22BAE3"/>
<path d="M35.0001 55.1688C40.0188 60.0501 44.9688 62.9376 48.9564 62.9376C50.2626 62.9376 51.5001 62.6626 52.5313 62.0438C56.1063 59.9813 57.4126 54.8251 56.1751 47.4688C55.9688 46.1626 55.6938 44.8563 55.3501 43.4813C56.7251 43.0688 57.9626 42.6563 59.2001 42.2439C66.1438 39.5626 69.9939 35.8501 69.9939 31.7938C69.9939 27.6688 66.1438 23.9563 59.2001 21.3438C57.9626 20.8626 56.7251 20.4501 55.3501 20.1063C55.6938 18.7313 55.9688 17.4251 56.1751 16.1188C57.3438 8.6251 56.0376 3.4001 52.4626 1.3376C51.4314 0.718848 50.1938 0.443848 48.8876 0.443848C44.9688 0.443848 39.9501 3.33135 34.9314 8.2126C29.9813 3.33135 25.0313 0.443848 21.0438 0.443848C19.7376 0.443848 18.5001 0.718848 17.4688 1.3376C13.8938 3.4001 12.5876 8.55635 13.8251 15.9126C14.0313 17.2188 14.3063 18.5251 14.6501 19.9001C13.2751 20.3126 12.0376 20.7251 10.8001 21.1376C3.85635 23.8188 0.00634766 27.5313 0.00634766 31.5876C0.00634766 35.7126 3.85635 39.4251 10.8001 42.0376C12.0376 42.5188 13.2751 42.9314 14.6501 43.2751C14.3063 44.6501 14.0313 45.9563 13.8251 47.2626C12.6563 54.6188 13.9626 59.8438 17.4688 61.8376C18.5001 62.4563 19.7376 62.7313 21.0438 62.7313C25.0313 62.8688 29.9813 59.9813 35.0001 55.1688ZM31.1501 45.8876C32.3876 45.9563 33.6938 45.9564 35.0001 45.9564C36.3063 45.9564 37.6126 45.9563 38.8501 45.8876C37.6126 47.5376 36.3063 49.0501 35.0001 50.4939C33.6938 49.0501 32.3876 47.5376 31.1501 45.8876ZM22.6251 38.8064C23.3126 39.9751 23.9313 41.0751 24.6876 42.1751C22.5563 41.9001 20.5626 41.5563 18.6376 41.1438C19.2563 39.2876 19.9438 37.3626 20.7688 35.4376C21.3188 36.5376 21.9376 37.7063 22.6251 38.8064ZM18.6376 22.2376C20.5626 21.8251 22.5563 21.4813 24.6876 21.2063C24.0001 22.3063 23.3126 23.4063 22.6251 24.5751C21.9376 25.7438 21.3188 26.8438 20.7688 28.0126C19.8751 26.0188 19.1876 24.0938 18.6376 22.2376ZM22.4188 31.6563C23.3126 29.8001 24.2751 27.9438 25.3751 26.0876C26.4063 24.3001 27.5751 22.5126 28.7439 20.7251C30.8064 20.5876 32.8688 20.5188 35.0001 20.5188C37.2001 20.5188 39.2626 20.5876 41.2563 20.7251C42.4938 22.5126 43.5938 24.3001 44.6251 26.0876C45.7251 27.9438 46.6876 29.8001 47.5814 31.6563C46.6876 33.5126 45.7251 35.3688 44.6251 37.2251C43.5938 39.0126 42.4251 40.8001 41.2563 42.5876C39.1938 42.7251 37.1313 42.7938 35.0001 42.7938C32.8001 42.7938 30.7376 42.7251 28.7439 42.5876C27.5063 40.8001 26.4063 39.0126 25.3751 37.2251C24.2751 35.3688 23.3126 33.5126 22.4188 31.6563ZM49.3001 27.9438L47.4438 24.5063C46.7563 23.3376 46.1376 22.2376 45.3813 21.1376C47.5126 21.4126 49.5064 21.7563 51.4314 22.1688C50.8126 24.0938 50.1251 26.0188 49.3001 27.9438ZM49.3001 35.3689C50.1251 37.2938 50.8126 39.2188 51.4314 41.0751C49.5064 41.4876 47.5126 41.8313 45.3813 42.1063C46.0688 41.0063 46.7563 39.9063 47.4438 38.7376C48.0626 37.7063 48.6814 36.5376 49.3001 35.3689ZM50.8813 59.2251C50.3313 59.5688 49.6438 59.7064 48.8876 59.7064C45.5188 59.7064 41.3251 56.9564 37.2001 52.8314C39.1938 50.7001 41.1188 48.2938 43.0438 45.6126C46.2751 45.3376 49.3688 44.8563 52.2563 44.1688C52.6001 45.4063 52.8063 46.6438 53.0126 47.8813C53.9751 53.7251 53.2188 57.9188 50.8813 59.2251ZM54.4564 22.9939C62.1563 25.1938 66.7626 28.5626 66.7626 31.6563C66.7626 34.3376 63.6001 37.0188 58.0313 39.1501C56.9313 39.5626 55.6939 39.9751 54.4564 40.3188C53.5626 37.5001 52.4626 34.6126 51.0876 31.6563C52.4626 28.7001 53.6314 25.8126 54.4564 22.9939ZM48.9564 3.60635C49.7126 3.60635 50.3313 3.74385 50.9501 4.0876C53.2188 5.39385 54.0438 9.51885 53.0814 15.4313C52.8751 16.6001 52.6001 17.8376 52.3251 19.1438C49.4376 18.5251 46.3438 18.0438 43.1126 17.7001C41.2564 15.0188 39.2626 12.6126 37.2689 10.4813C41.3939 6.4251 45.5876 3.60635 48.9564 3.60635ZM38.8501 17.4251C37.6126 17.3563 36.3063 17.3563 35.0001 17.3563C33.6938 17.3563 32.3876 17.3563 31.1501 17.4251C32.3876 15.7751 33.6938 14.2626 35.0001 12.8188C36.3063 14.2626 37.6126 15.8438 38.8501 17.4251ZM19.1188 4.0876C19.6688 3.74385 20.3563 3.60635 21.1126 3.60635C24.4813 3.60635 28.6751 6.35635 32.8001 10.4813C30.8063 12.6126 28.8813 15.0188 26.9563 17.7001C23.7251 17.9751 20.6313 18.4563 17.7438 19.1438C17.4001 17.9063 17.1938 16.6688 16.9876 15.4313C16.0251 9.5876 16.7813 5.4626 19.1188 4.0876ZM15.5438 40.3188C7.84385 38.1188 3.2376 34.7501 3.2376 31.6563C3.2376 28.9751 6.4001 26.2938 11.9688 24.1626C13.0688 23.7501 14.3063 23.3376 15.5438 22.9939C16.4376 25.8126 17.5376 28.7001 18.9126 31.6563C17.5376 34.6126 16.3688 37.5688 15.5438 40.3188ZM16.9876 47.8813C17.1938 46.7126 17.4688 45.4751 17.7438 44.1688C20.6313 44.7876 23.7251 45.2689 26.9563 45.6126C28.8126 48.2938 30.8063 50.7001 32.8001 52.8314C28.6751 56.8876 24.4813 59.7064 21.1126 59.7064C20.3563 59.7064 19.7376 59.5688 19.1188 59.2251C16.7813 57.9188 16.0251 53.7251 16.9876 47.8813ZM14.1001 76.2064C15.6126 74.3501 15.6813 72.2876 14.8563 70.2251C14.0313 68.1626 12.3126 67.2001 10.1813 67.1313C7.6376 67.0626 5.0251 67.1313 2.48135 67.1313H2.0001V84.9376H4.0626V78.2001H7.29385C7.70635 78.2001 8.0501 78.3376 8.25635 78.6814L12.3813 85.0751C12.4501 85.2126 12.6563 85.4188 12.7938 85.4188H15.4751C13.8251 82.8751 12.2438 80.4688 10.5938 77.9939C12.0376 77.7876 13.2751 77.3064 14.1001 76.2064ZM4.0626 76.0688V69.2626H4.81885C6.4001 69.2626 8.0501 69.1938 9.63135 69.3314C11.4876 69.4001 12.7938 70.8438 12.7938 72.7001C12.7938 74.5563 11.2813 76.0001 9.4251 76.0688C7.7751 76.1376 6.1251 76.0688 4.0626 76.0688ZM30.6688 76.9626C29.5688 72.1501 25.1688 70.9126 21.8001 72.4251C19.1876 73.5938 18.0188 75.8626 17.9501 78.6814C17.8813 80.8126 18.5001 82.7376 20.1501 84.1814C22.0063 85.8314 24.2751 86.0376 26.6126 85.6251C27.9188 85.3501 29.0876 84.7314 29.9813 83.7689C29.6376 83.2876 29.2938 82.8064 28.9501 82.3939C27.0251 84.0439 24.8939 84.5938 22.5564 83.4939C21.0438 82.7376 20.2876 80.8813 20.1501 79.5063H30.8064V78.6126C30.8751 77.9939 30.8063 77.4438 30.6688 76.9626ZM20.2876 78.0626C20.0813 76.0001 22.1438 73.8001 24.4126 73.8001C27.0251 73.7314 28.6751 75.3126 28.7439 78.0626H20.2876ZM41.3939 72.0814C40.3626 71.8751 39.2626 71.8064 38.2313 71.8751C36.5813 72.0126 35.1376 72.7688 33.9688 74.0063C34.3126 74.4876 34.5876 74.9688 35.0001 75.5189C35.1376 75.3813 35.2751 75.2439 35.4126 75.1751C36.5126 74.1439 37.8189 73.5938 39.4001 73.7313C40.6376 73.8001 41.8064 74.2126 42.1501 75.4501C42.4251 76.4126 42.3563 77.4438 42.4251 78.4751C42.2188 78.4751 42.1501 78.4063 42.0814 78.3376C40.4314 76.9626 38.5751 76.6876 36.5814 77.1688C34.7251 77.6501 33.5563 79.0938 33.4188 80.9501C33.2813 83.0813 34.2438 84.6626 36.1001 85.4188C37.2688 85.9001 38.5751 85.9001 39.8126 85.6251C40.7751 85.4188 41.1876 84.8689 42.5626 84.1126V85.0063H44.4876C44.4876 82.2563 44.5564 78.8876 44.4876 75.7251C44.4876 73.7313 43.3189 72.4939 41.3939 72.0814ZM42.3563 80.7439C42.2876 80.9501 42.3563 81.1563 42.3563 81.3626C42.3563 82.8064 42.0126 83.2876 40.6376 83.8376C39.6751 84.1814 38.6439 84.3188 37.6126 83.9751C36.4439 83.6313 35.6189 82.6001 35.6189 81.4314C35.5501 80.2626 36.3063 79.0938 37.4751 78.7501C39.0563 78.2001 40.5001 78.5438 41.8064 79.5063C42.2188 79.8501 42.4938 80.1938 42.3563 80.7439ZM53.0814 73.9376C54.8689 73.3876 56.5188 73.7313 57.7563 75.2439L57.9626 75.3813C58.4439 74.9688 58.8563 74.5563 59.4063 74.0751C59.2001 73.8688 59.1314 73.7313 58.9939 73.5251C57.0001 71.3939 53.0814 71.1189 50.6751 72.8376C47.3064 75.3126 47.3751 80.1251 49.0251 82.6688C50.6063 85.0751 52.8751 85.9001 55.5564 85.5564C57.1376 85.3501 58.4438 84.5938 59.4751 83.2876C58.9938 82.8751 58.5126 82.4626 58.0313 81.9813C57.8938 82.1188 57.8251 82.1876 57.7563 82.3251C55.9001 84.3876 52.8063 84.1813 51.1563 81.9813C50.1938 80.6751 49.9876 79.1626 50.2626 77.6501C50.4001 75.9314 51.2938 74.5564 53.0814 73.9376ZM67.3813 83.2876C67.2439 83.3563 67.1751 83.4251 67.1751 83.4251C66.6251 83.8376 66.0751 83.9063 65.4564 83.7001C64.8376 83.4251 64.7688 82.8751 64.7001 82.3251V74.4876C64.7001 74.3501 64.7001 74.6251 64.7689 73.9376H67.3813V71.8751H64.6313V68.4376H62.5688V72.1501H60.7813C60.6438 72.1501 60.4376 72.2876 60.4376 72.4251C60.3688 72.9063 60.4376 73.2501 60.4376 73.9376H62.6376V82.7376C62.6376 83.8376 62.9126 84.8001 63.8751 85.3501C64.9063 85.9688 66.9001 85.8313 67.7938 85.0751C67.9313 85.0063 68.0001 84.7313 68.0001 84.6626C67.7938 84.2501 67.5876 83.7688 67.3813 83.2876Z" fill="#22BAE3"/>
</svg>
