<svg width="88" height="88" viewBox="0 0 88 88" fill="none" xmlns="http://www.w3.org/2000/svg">
<g clip-path="url(#clip0_114_399)">
<path d="M67.375 0H20.625C9.23413 0 0 9.23413 0 20.625V67.375C0 78.7659 9.23413 88 20.625 88H67.375C78.7659 88 88 78.7659 88 67.375V20.625C88 9.23413 78.7659 0 67.375 0Z" fill="#E43717"/>
<path d="M77.8848 43.1582L75.0008 41.3713C74.9762 41.0902 74.9489 40.8099 74.9186 40.5305L77.4018 38.2181C77.5258 38.103 77.6183 37.9579 77.6702 37.7969C77.7222 37.6359 77.7321 37.4642 77.6989 37.2982C77.6663 37.1323 77.5917 36.9774 77.482 36.8486C77.3724 36.7198 77.2315 36.6213 77.0729 36.5626L73.8994 35.3801C73.82 35.1055 73.7364 34.8329 73.6512 34.5589L75.6288 31.813C75.7277 31.676 75.7899 31.5159 75.8095 31.348C75.829 31.1802 75.8053 31.0101 75.7405 30.854C75.6757 30.6981 75.5724 30.5612 75.4402 30.4562C75.3081 30.3511 75.1514 30.2814 74.9849 30.2534L71.6406 29.7093C71.5108 29.4574 71.3767 29.2078 71.2384 28.9606L72.6447 25.873C72.7153 25.7188 72.7452 25.549 72.7316 25.3799C72.718 25.2109 72.6613 25.0481 72.567 24.9071C72.4734 24.7659 72.3451 24.6512 72.1943 24.5741C72.0436 24.4969 71.8755 24.4598 71.7063 24.4664L68.3097 24.5847C68.1343 24.3651 67.9556 24.1483 67.7734 23.9343L68.5554 20.6298C68.5944 20.4646 68.5905 20.2923 68.5441 20.129C68.4976 19.9658 68.4103 19.8172 68.2902 19.6972C68.1702 19.5772 68.0215 19.49 67.8583 19.4436C67.695 19.3973 67.5226 19.3935 67.3575 19.4325L64.053 20.2142C63.8384 20.0323 63.6211 19.8535 63.4013 19.678L63.5202 16.2817C63.5333 15.938 63.3655 15.6114 63.0792 15.421C62.9381 15.3269 62.7753 15.2703 62.6063 15.2567C62.4373 15.243 62.2676 15.2727 62.1132 15.3429L59.0318 16.7489C58.783 16.6116 58.5334 16.4773 58.2832 16.346L57.7376 13.0023C57.7106 12.8355 57.6412 12.6784 57.5361 12.5461C57.4309 12.4138 57.2935 12.3107 57.1371 12.2468C56.981 12.182 56.8109 12.1582 56.643 12.1778C56.4751 12.1973 56.3151 12.2596 56.178 12.3585L53.4318 14.3357C53.1613 14.2498 52.8897 14.1673 52.6171 14.0883L51.4343 10.9154C51.3753 10.7568 51.2767 10.6159 51.148 10.506C51.0193 10.3962 50.8646 10.3211 50.6987 10.2878C50.5327 10.2552 50.3612 10.2653 50.2003 10.3173C50.0394 10.3693 49.8943 10.4613 49.7788 10.5848L47.466 13.068C47.1862 13.0367 46.9059 13.0093 46.6252 12.9858L44.8381 10.0953C44.7485 9.95122 44.6236 9.83244 44.4752 9.75015C44.3269 9.66786 44.16 9.62479 43.9904 9.625C43.6435 9.625 43.3269 9.80306 43.1496 10.0953L41.3624 12.9862C41.0812 13.0089 40.8 13.0371 40.5216 13.068L38.2088 10.5848C38.0933 10.4613 37.9482 10.3693 37.7873 10.3173C37.6264 10.2653 37.4549 10.2552 37.289 10.2878C37.1229 10.3207 36.968 10.3956 36.8392 10.5054C36.7103 10.6153 36.6118 10.7563 36.553 10.9151L35.3705 14.0879C35.0958 14.167 34.8239 14.2505 34.5558 14.3357L31.8093 12.3585C31.6724 12.2593 31.5123 12.1969 31.3443 12.1773C31.1764 12.1577 31.0062 12.1817 30.8502 12.2468C30.6944 12.3116 30.5576 12.415 30.4526 12.5471C30.3476 12.6793 30.2779 12.8359 30.25 13.0023L29.7048 16.346C29.4527 16.4769 29.2031 16.6111 28.9558 16.7489L25.8744 15.3429C25.7203 15.2726 25.5508 15.2429 25.3819 15.2564C25.2131 15.27 25.0505 15.3265 24.9096 15.4205C24.7687 15.5146 24.6542 15.643 24.5769 15.7937C24.4995 15.9445 24.462 16.1124 24.4678 16.2817L24.586 19.678C24.3664 19.8538 24.1491 20.0326 23.9343 20.2142L20.6295 19.4325C20.4643 19.3939 20.292 19.398 20.1288 19.4443C19.9656 19.4906 19.8168 19.5776 19.6965 19.6972C19.4525 19.9409 19.3528 20.2923 19.4318 20.6298L20.207 23.9343C20.0259 24.1487 19.8476 24.3655 19.6721 24.5847L16.2759 24.4664C16.1067 24.4607 15.9389 24.4982 15.7883 24.5753C15.6376 24.6524 15.5091 24.7666 15.4148 24.9071C15.3207 25.0482 15.2641 25.2109 15.2505 25.3799C15.2368 25.549 15.2665 25.7187 15.3368 25.873L16.7427 28.9606C16.6054 29.2081 16.4711 29.4577 16.3398 29.7093L12.9958 30.2534C12.829 30.2804 12.6719 30.3498 12.5396 30.455C12.4073 30.5602 12.3042 30.6975 12.2403 30.854C12.1758 31.0101 12.1522 31.1802 12.1718 31.348C12.1913 31.5158 12.2533 31.6759 12.352 31.813L14.3296 34.5589C14.2426 34.8314 14.1597 35.1051 14.081 35.3801L10.9079 36.5626C10.7495 36.6218 10.6089 36.7204 10.4993 36.8492C10.3897 36.9779 10.3147 37.1325 10.2816 37.2982C10.2487 37.4642 10.2587 37.6358 10.3106 37.7967C10.3626 37.9577 10.4548 38.1028 10.5786 38.2181L13.0622 40.5305C13.0312 40.8101 13.0038 41.0904 12.98 41.3713L10.0959 43.1582C9.95161 43.2474 9.83254 43.3722 9.7501 43.5205C9.66766 43.6688 9.62459 43.8358 9.625 44.0055C9.625 44.353 9.80307 44.6693 10.0956 44.8467L12.9797 46.6335C13.0037 46.9149 13.0311 47.1952 13.0618 47.4743L10.5782 49.7867C10.4546 49.902 10.3625 50.047 10.3107 50.2079C10.2588 50.3688 10.2489 50.5403 10.2819 50.7061C10.3149 50.8719 10.3897 51.0266 10.4992 51.1554C10.6086 51.2842 10.7492 51.3829 10.9075 51.4422L14.0807 52.6247C14.1598 52.8993 14.2429 53.1719 14.3292 53.4459L12.3516 56.1918C12.2526 56.3293 12.1905 56.4898 12.1711 56.6581C12.1518 56.8264 12.1759 56.9969 12.2411 57.1533C12.3063 57.3097 12.4105 57.4467 12.5437 57.5514C12.6769 57.6561 12.8347 57.7249 13.002 57.7514L16.3463 58.2952C16.477 58.5489 16.6111 58.7985 16.7489 59.0442L15.3429 62.1252C15.2726 62.2793 15.2428 62.4488 15.2564 62.6177C15.27 62.7865 15.3265 62.9491 15.4205 63.09C15.5146 63.2308 15.643 63.3453 15.7938 63.4226C15.9445 63.4999 16.1124 63.5374 16.2817 63.5315L19.6718 63.4129C19.8477 63.6324 20.0265 63.8495 20.208 64.0643L19.4329 67.3688C19.3538 67.704 19.4535 68.0522 19.6976 68.2952C19.8176 68.4153 19.9663 68.5025 20.1296 68.5488C20.293 68.595 20.4654 68.5986 20.6305 68.5592L23.9353 67.7841C24.1497 67.9658 24.367 68.1441 24.5871 68.3189L24.4688 71.7152C24.4626 71.8843 24.4999 72.0522 24.577 72.2028C24.6542 72.3535 24.7686 72.4818 24.9095 72.5756C25.1948 72.7667 25.5602 72.7959 25.8754 72.6526L28.9568 71.2467C29.205 71.3846 29.4547 71.5189 29.7058 71.6495L30.251 74.9932C30.306 75.3335 30.5336 75.6212 30.8516 75.7553C31.1688 75.8873 31.5349 75.8447 31.8106 75.6442L34.5572 73.667C34.8284 73.7529 35.101 73.8372 35.3784 73.9159L36.5609 77.0887C36.6198 77.2473 36.7184 77.3881 36.8473 77.4977C36.9761 77.6074 37.1309 77.6822 37.2969 77.715C37.4628 77.7482 37.6345 77.7384 37.7955 77.6864C37.9566 77.6344 38.1016 77.542 38.2168 77.418L40.5295 74.9347C40.8086 74.9671 41.0898 74.9939 41.3703 75.019L43.1575 77.9027C43.2462 78.046 43.3699 78.1644 43.517 78.2467C43.6641 78.3291 43.8297 78.3726 43.9983 78.3733C44.3393 78.3733 44.6621 78.1945 44.846 77.9027L46.6331 75.019C46.9138 74.9946 47.194 74.9665 47.4739 74.9347L49.7867 77.418C49.9019 77.542 50.0469 77.6344 50.2079 77.6864C50.369 77.7384 50.5406 77.7482 50.7066 77.715C50.8726 77.6824 51.0275 77.6077 51.1563 77.498C51.2851 77.3884 51.3836 77.2474 51.4422 77.0887L52.625 73.9159C52.8993 73.8372 53.1723 73.7529 53.4463 73.667L56.1925 75.6442C56.33 75.7433 56.4906 75.8055 56.659 75.8249C56.8274 75.8443 56.9979 75.8202 57.1543 75.7549C57.3108 75.6896 57.4478 75.5853 57.5525 75.4519C57.6571 75.3186 57.7258 75.1606 57.7521 74.9932L58.2976 71.6495C58.5499 71.5186 58.7995 71.3828 59.0466 71.2467L62.128 72.6526C62.282 72.7231 62.4515 72.7531 62.6203 72.7398C62.7891 72.7264 62.9518 72.67 63.0927 72.5761C63.2336 72.4822 63.3482 72.3538 63.4256 72.2031C63.5029 72.0524 63.5405 71.8845 63.5346 71.7152L63.4164 68.3189C63.6361 68.144 63.8532 67.9657 64.0674 67.7841L67.3719 68.5592C67.5371 68.5986 67.7096 68.5951 67.873 68.5488C68.0363 68.5026 68.1852 68.4153 68.3052 68.2952C68.4248 68.1763 68.512 68.0287 68.5583 67.8665C68.6047 67.7043 68.6086 67.533 68.5699 67.3688L67.7944 64.0643C67.9762 63.8501 68.1545 63.6329 68.3293 63.4129L71.7262 63.5315C71.8954 63.5381 72.0634 63.501 72.2141 63.4238C72.3648 63.3466 72.493 63.2319 72.5866 63.0908C72.6812 62.95 72.738 62.7873 72.7516 62.6182C72.7652 62.4491 72.7351 62.2794 72.6643 62.1252L71.2583 59.0442C71.3958 58.7953 71.5299 58.5457 71.6605 58.2952L75.0045 57.7514C75.1715 57.7247 75.3287 57.6554 75.4611 57.5502C75.5934 57.445 75.6964 57.3075 75.7601 57.1508C75.8249 56.9947 75.8486 56.8246 75.8291 56.6568C75.8095 56.4889 75.7473 56.3288 75.6484 56.1918L73.6708 53.4459C73.7564 53.1743 73.8396 52.9017 73.9193 52.6247L77.0925 51.4422C77.2511 51.3832 77.3919 51.2847 77.5015 51.1558C77.6112 51.027 77.686 50.8722 77.7188 50.7062C77.752 50.5403 77.7421 50.3687 77.6901 50.2078C77.6381 50.0468 77.5457 49.9018 77.4218 49.7867L74.9382 47.4743C74.9684 47.1947 74.9958 46.9144 75.0203 46.6335L77.9048 44.8467C78.0483 44.7581 78.1668 44.6344 78.2491 44.4872C78.3314 44.3399 78.3748 44.1742 78.375 44.0055C78.375 43.6648 78.1976 43.3421 77.9051 43.1582H77.8848ZM58.5688 67.1364C57.465 66.8986 56.7686 65.8092 57.0051 64.7058C57.0611 64.4434 57.1683 64.1947 57.3204 63.9738C57.4726 63.7529 57.6668 63.5641 57.892 63.4183C58.1171 63.2725 58.3688 63.1725 58.6326 63.1239C58.8965 63.0754 59.1673 63.0794 59.4296 63.1355C60.5333 63.3713 61.2363 64.4624 60.9998 65.5662C60.9438 65.8285 60.8367 66.0772 60.6845 66.2982C60.5323 66.5191 60.3381 66.7078 60.1129 66.8537C59.8878 66.9995 59.6361 67.0995 59.3723 67.148C59.1085 67.1965 58.8377 67.1926 58.5753 67.1364H58.5688ZM57.5898 60.5014C56.5847 60.2858 55.5926 60.9256 55.3823 61.9334L54.3575 66.7157C51.1971 68.1481 47.6558 68.9494 43.9766 68.9494C40.1923 68.9494 36.6183 68.1151 33.3988 66.6174L32.374 61.8348C32.1585 60.8297 31.1716 60.1858 30.1665 60.4027L25.9418 61.3092C25.1584 60.5001 24.4297 59.6398 23.7603 58.7342H44.3248C44.5576 58.7342 44.7126 58.6922 44.7126 58.4805V51.1885C44.7126 50.9771 44.5576 50.9352 44.3248 50.9352H38.3133V46.3299H44.8109C45.4042 46.3299 47.9844 46.4994 48.8056 49.7984C49.0638 50.81 49.6334 54.108 50.0211 55.1657C50.4075 56.3482 51.9791 58.7132 53.6546 58.7132H63.9038C64.02 58.7132 64.1441 58.6998 64.2751 58.6764C63.5642 59.6403 62.7871 60.5534 61.9493 61.4092L57.6259 60.4828L57.5898 60.5014ZM29.1414 67.0378C28.8791 67.0943 28.6082 67.0985 28.3442 67.0501C28.0803 67.0017 27.8285 66.9017 27.6033 66.7558C27.378 66.61 27.1838 66.4211 27.0317 66.2C26.8796 65.9789 26.7727 65.73 26.7169 65.4675C26.4811 64.3641 27.1824 63.2734 28.2872 63.0369C28.5495 62.9807 28.8203 62.9768 29.0841 63.0253C29.3479 63.0738 29.5996 63.1738 29.8248 63.3196C30.0499 63.4655 30.2441 63.6542 30.3963 63.8751C30.5485 64.0961 30.6556 64.3448 30.7117 64.6071C30.9475 65.7109 30.2459 66.8013 29.1414 67.0378ZM21.3232 35.4392C21.5426 35.935 21.5565 36.4976 21.3619 37.0037C21.1673 37.5097 20.7801 37.918 20.285 38.1391C19.7902 38.3585 19.2284 38.3725 18.7232 38.1779C18.218 37.9833 17.8108 37.5961 17.5911 37.1013C17.1315 36.0711 17.599 34.8611 18.6292 34.4011C19.1241 34.1817 19.6859 34.1677 20.1911 34.3624C20.6963 34.5571 21.1035 34.9444 21.3232 35.4392ZM18.9248 41.1152L23.3269 39.1576C24.2663 38.7403 24.6936 37.6399 24.2729 36.7005L23.3664 34.651H26.9273V50.6801H19.766C19.1286 48.4363 18.8058 46.1149 18.8069 43.7824C18.8069 42.8804 18.8549 41.9791 18.9506 41.0822L18.9248 41.1152ZM38.2412 39.5581V34.8284H46.7163C47.1546 34.8284 49.8108 35.3347 49.8108 37.3182C49.8108 38.9668 47.774 39.5581 46.0989 39.5581H38.2147H38.2412ZM69.0546 43.8151C69.0546 44.4431 69.0315 45.0632 68.9858 45.6809H66.4036C66.1454 45.6809 66.0416 45.8504 66.0416 46.1031V47.2856C66.0416 50.071 64.4713 50.6822 63.0915 50.8331C61.7777 50.9809 60.3257 50.2841 60.1483 49.4797C59.3729 45.1244 58.0852 44.198 56.0484 42.582C58.5781 40.9791 61.2061 38.6076 61.2061 35.4214C61.2061 31.999 58.8607 29.844 57.2639 28.7863C55.0172 27.3082 52.5336 27.0126 51.8633 27.0126H25.189C28.8087 22.9793 33.7301 20.1149 39.2487 19.0637L42.3961 22.3616C42.5649 22.5388 42.7671 22.681 42.991 22.7799C43.2149 22.8789 43.4561 22.9327 43.7008 22.9383C43.9455 22.9439 44.1889 22.9012 44.4171 22.8127C44.6453 22.7241 44.8537 22.5914 45.0306 22.4221L48.5519 19.0585C55.9106 20.4315 62.1521 25.0171 65.7656 31.3431L63.3545 36.7826C62.9386 37.7221 63.3631 38.8259 64.3005 39.2397L68.9391 41.3022C69.0192 42.1235 69.0611 42.9577 69.0611 43.7986L69.0546 43.8151ZM42.3803 16.2896C42.5737 16.1041 42.8019 15.9587 43.0518 15.8616C43.3016 15.7645 43.5681 15.7177 43.8361 15.7239C44.104 15.7301 44.3681 15.7891 44.6132 15.8975C44.8583 16.006 45.0796 16.1618 45.2643 16.356C45.6376 16.7488 45.8401 17.2735 45.8274 17.8152C45.8147 18.357 45.5879 18.8717 45.1966 19.2466C45.0031 19.4321 44.7749 19.5776 44.5251 19.6747C44.2752 19.7718 44.0086 19.8186 43.7406 19.8124C43.4726 19.8062 43.2085 19.747 42.9634 19.6384C42.7184 19.5298 42.4972 19.3739 42.3125 19.1795C41.9392 18.7867 41.7368 18.262 41.7495 17.7203C41.7622 17.1785 41.989 16.6638 42.3803 16.2889V16.2896ZM66.2953 35.5379C66.4036 35.2925 66.5593 35.071 66.7534 34.8859C66.9475 34.7008 67.1763 34.5559 67.4265 34.4595C67.6768 34.363 67.9436 34.3169 68.2117 34.3239C68.4799 34.3308 68.744 34.3906 68.9889 34.4998C69.2344 34.6089 69.456 34.7653 69.641 34.96C69.826 35.1548 69.9709 35.3841 70.0673 35.6348C70.1637 35.8856 70.2098 36.1528 70.2028 36.4214C70.1959 36.6899 70.1362 36.9545 70.027 37.1999C69.9186 37.4452 69.7628 37.6666 69.5687 37.8516C69.3745 38.0365 69.1458 38.1813 68.8956 38.2777C68.6453 38.3741 68.3786 38.4202 68.1105 38.4134C67.8424 38.4065 67.5784 38.3468 67.3334 38.2377C67.088 38.1286 66.8664 37.9722 66.6814 37.7775C66.4964 37.5828 66.3516 37.3535 66.2552 37.1028C66.1588 36.8521 66.1127 36.5849 66.1196 36.3164C66.1265 36.0479 66.1862 35.7833 66.2953 35.5379Z" fill="white"/>
</g>
<defs>
<clipPath id="clip0_114_399">
<rect width="88" height="88" fill="white"/>
</clipPath>
</defs>
</svg>
