<svg width="88" height="88" viewBox="0 0 88 88" fill="none" xmlns="http://www.w3.org/2000/svg">
<path d="M67.375 0H20.625C9.23413 0 0 9.23413 0 20.625V67.375C0 78.7659 9.23413 88 20.625 88H67.375C78.7659 88 88 78.7659 88 67.375V20.625C88 9.23413 78.7659 0 67.375 0Z" fill="#65AFFF"/>
<path opacity="0.45" d="M56.903 8.59375L44.0021 28.8028H18.2188L31.1104 8.59375H56.903Z" fill="#1B1B1B"/>
<path opacity="0.6" d="M44.002 28.8028H69.7946L56.9029 8.59375H31.1104L44.002 28.8028Z" fill="#1B1B1B"/>
<path opacity="0.8" d="M31.1104 49.004L44.0021 28.8028L31.1104 8.59375L18.2188 28.8028L31.1104 49.004Z" fill="#1B1B1B"/>
<path opacity="0.45" d="M31.2356 79.3175L44.1362 59.1084H69.9288L57.0278 79.3175H31.2356Z" fill="#1B1B1B"/>
<path opacity="0.6" d="M44.1361 59.1084H18.3435L31.2352 79.3175H57.0281L44.1361 59.1084Z" fill="#1B1B1B"/>
<path opacity="0.8" d="M57.0279 38.9072L44.1362 59.1084L57.0279 79.3174L69.9285 59.1084L57.0279 38.9072Z" fill="#1B1B1B"/>
</svg>
