<svg width="35" height="25" viewBox="0 0 35 25" fill="none" xmlns="http://www.w3.org/2000/svg">
<path d="M33.5313 4.38968C33.3364 3.66371 32.9542 3.00166 32.423 2.46981C31.8918 1.93795 31.2303 1.55494 30.5045 1.3591C27.8332 0.640635 17.1249 0.640625 17.1249 0.640625C17.1249 0.640625 6.41665 0.640625 3.74531 1.35527C3.01927 1.55048 2.35738 1.93328 1.82609 2.46524C1.29481 2.99719 0.912846 3.65957 0.718556 4.38585C0.00390619 7.061 0.00390625 12.6406 0.00390625 12.6406C0.00390625 12.6406 0.00390619 18.2202 0.718556 20.8916C1.11219 22.3667 2.27397 23.5285 3.74531 23.9222C6.41665 24.6406 17.1249 24.6406 17.1249 24.6406C17.1249 24.6406 27.8332 24.6406 30.5045 23.9222C31.9797 23.5285 33.1377 22.3667 33.5313 20.8916C34.2459 18.2202 34.2459 12.6406 34.2459 12.6406C34.2459 12.6406 34.2459 7.06101 33.5313 4.38968ZM13.7237 17.7616V7.5196L22.5899 12.6024L13.7237 17.7616Z" fill="#1B1B1B"/>
</svg>
