<svg width="25" height="25" viewBox="0 0 25 25" fill="none" xmlns="http://www.w3.org/2000/svg">
<path d="M12.0087 8.6296C9.8052 8.6296 8.007 10.4279 8.007 12.6313C8.007 14.8348 9.8052 16.6331 12.0087 16.6331C14.2122 16.6331 16.0104 14.8348 16.0104 12.6313C16.0104 10.4279 14.2122 8.6296 12.0087 8.6296ZM24.0109 12.6313C24.0109 10.9742 24.0259 9.3321 23.9328 7.678C23.8397 5.7567 23.4014 4.05155 21.9965 2.6466C20.5885 1.23865 18.8864 0.803361 16.9651 0.710291C15.308 0.617231 13.6658 0.632241 12.0117 0.632241C10.3546 0.632241 8.7125 0.617231 7.05838 0.710291C5.13708 0.803361 3.43193 1.24165 2.02697 2.6466C0.619022 4.05455 0.183732 5.7567 0.0906618 7.678C-0.00239819 9.3351 0.0126117 10.9772 0.0126117 12.6313C0.0126117 14.2855 -0.00239819 15.9306 0.0906618 17.5847C0.183732 19.506 0.622022 21.2111 2.02697 22.6161C3.43493 24.024 5.13708 24.4593 7.05838 24.5524C8.7155 24.6455 10.3576 24.6305 12.0117 24.6305C13.6689 24.6305 15.311 24.6455 16.9651 24.5524C18.8864 24.4593 20.5915 24.021 21.9965 22.6161C23.4044 21.2081 23.8397 19.506 23.9328 17.5847C24.0289 15.9306 24.0109 14.2885 24.0109 12.6313ZM12.0087 18.7885C8.6014 18.7885 5.85156 16.0386 5.85156 12.6313C5.85156 9.224 8.6014 6.47419 12.0087 6.47419C15.416 6.47419 18.1659 9.224 18.1659 12.6313C18.1659 16.0386 15.416 18.7885 12.0087 18.7885ZM18.4181 7.65999C17.6225 7.65999 16.9801 7.01755 16.9801 6.22202C16.9801 5.42648 17.6225 4.78405 18.4181 4.78405C19.2136 4.78405 19.856 5.42648 19.856 6.22202C19.8563 6.41092 19.8192 6.59802 19.7471 6.77259C19.6749 6.94715 19.569 7.10577 19.4354 7.23935C19.3018 7.37292 19.1432 7.47883 18.9686 7.55101C18.7941 7.62319 18.607 7.66023 18.4181 7.65999Z" fill="#1B1B1B"/>
</svg>
