<svg width="41" height="40" viewBox="0 0 41 40" fill="none" xmlns="http://www.w3.org/2000/svg">
<path d="M34.6263 19.9783L36.1247 18.2583L35.473 17.7917L36.5147 16.855L35.7113 16.26L36.753 15.495L36.0813 14.985L37.1663 9.80167L35.5163 5M35.5163 5L24.9163 8.845H16.083L5.48301 5L3.83301 9.80167L4.93967 14.985L4.24634 15.495L5.30967 16.2617L4.50634 16.855L5.54801 17.79L4.89801 18.2567L6.39467 19.9783L4.11467 26.8617L6.22134 33.895L13.6263 31.8983L15.0597 33.045L17.993 35H23.008L25.9397 33.045L27.373 31.8983L34.7997 33.895L36.928 26.8617L34.6263 19.9783" fill="#F5841F"/>
<path d="M35.5162 5L22.5079 14.37L24.9195 8.845L35.5162 5ZM5.48288 5L18.3829 14.455L16.0812 8.845L5.48288 5ZM30.8479 26.735L27.3729 31.8767L34.7995 33.8733L36.9279 26.84L30.8479 26.735ZM4.11621 26.8417L6.22121 33.875L13.6262 31.8767L10.1745 26.735L4.11621 26.8417Z" fill="#E27625"/>
<path d="M13.2362 18.0233L11.1729 21.0617L18.5129 21.3817L18.2745 13.69L13.2362 18.0233ZM27.7845 18.0233L22.6595 13.605L22.5095 21.3817L29.8479 21.0617L27.7845 18.0233ZM13.6262 31.8767L18.0779 29.7933L14.2345 26.905L13.6262 31.8767ZM22.9429 29.795L27.3729 31.8783L26.7645 26.905L22.9429 29.795Z" fill="#E27625"/>
<path d="M27.3726 31.8767L22.9426 29.7933L23.311 32.5983L23.2676 33.7883L27.3726 31.8767ZM13.626 31.8767L17.7526 33.7883L17.731 32.6L18.0776 29.795L13.626 31.8767Z" fill="#D7C1B3"/>
<path d="M17.8168 25.035L14.1484 23.995L16.7534 22.825L17.8168 25.035ZM23.1834 25.035L24.2668 22.825L26.8734 23.995L23.1834 25.035Z" fill="#2F343B"/>
<path d="M13.6265 31.8767L14.2781 26.735L10.1748 26.8417L13.6265 31.8767ZM26.7431 26.735L27.3731 31.8767L30.8481 26.8417L26.7431 26.735ZM29.8498 21.0617L22.5081 21.3817L23.1815 25.035L24.2681 22.825L26.8731 23.995L29.8498 21.0617ZM14.1481 23.995L16.7531 22.825L17.8181 25.035L18.5131 21.3817L11.1731 21.0617L14.1481 23.995Z" fill="#CC6228"/>
<path d="M11.1729 21.0617L14.2345 26.905L14.1479 23.995L11.1729 21.0617ZM26.8729 23.995L26.7645 26.905L29.8479 21.0617L26.8729 23.995ZM18.5129 21.3817L17.8179 25.035L18.6862 29.3683L18.8812 23.675L18.5129 21.3817ZM22.5079 21.3817L22.1395 23.655L22.3129 29.37L23.1812 25.0367L22.5079 21.3817Z" fill="#E27625"/>
<path d="M23.1834 25.035L22.3134 29.3683L22.9434 29.795L26.7651 26.905L26.8734 23.995L23.1834 25.035ZM14.1484 23.995L14.2351 26.905L18.0784 29.795L18.6868 29.37L17.8184 25.0367L14.1484 23.995Z" fill="#F5841F"/>
<path d="M23.2683 33.7883L23.3117 32.6L22.965 32.3233H18.0333L17.73 32.6L17.7517 33.7883L13.625 31.8767L15.0583 33.0233L17.9933 35H23.0083L25.94 33.0233L27.3733 31.8767L23.2683 33.7883Z" fill="#C0AD9E"/>
<path d="M22.9431 29.795L22.3131 29.37H18.6864L18.0781 29.795L17.7314 32.6L18.0348 32.3233H22.9648L23.3114 32.6L22.9431 29.795Z" fill="#2F343B"/>
<path d="M36.0813 14.9867L37.1663 9.8L35.5163 5L22.943 14.05L27.7847 18.0233L34.6263 19.9783L36.1247 18.2583L35.473 17.7917L36.5147 16.8767L35.7113 16.26L36.753 15.495L36.0813 14.9867ZM3.83301 9.80167L4.93967 14.985L4.24634 15.495L5.28801 16.2817L4.48467 16.8767L5.52634 17.79L4.87634 18.2567L6.39467 19.9783L13.2363 18.0233L18.078 14.0517L5.48301 5L3.83301 9.80167Z" fill="#763E1A"/>
<path d="M34.6259 19.9783L27.7843 18.0233L29.8476 21.0617L26.7643 26.905L30.8476 26.8417H36.9276L34.6259 19.9783ZM13.2359 18.0233L6.39426 19.9783L4.11426 26.8417H10.1743L14.2343 26.905L11.1726 21.0617L13.2359 18.0233ZM22.5076 21.3817L22.9409 14.0517L24.9193 8.845H16.0809L18.0776 14.0517L18.5109 21.3817L18.6859 23.675V29.37H22.3126L22.3343 23.675L22.5076 21.3817Z" fill="#F5841F"/>
</svg>
