<svg width="41" height="40" viewBox="0 0 41 40" fill="none" xmlns="http://www.w3.org/2000/svg">
<g clip-path="url(#clip0_12_85)">
<path d="M8.68837 12.5317C15.2134 6.14667 25.7884 6.14667 32.3117 12.5317L33.0967 13.3C33.1742 13.3751 33.2359 13.4649 33.278 13.5643C33.3201 13.6636 33.3417 13.7704 33.3417 13.8783C33.3417 13.9862 33.3201 14.093 33.278 14.1924C33.2359 14.2917 33.1742 14.3816 33.0967 14.4567L30.4117 17.085C30.373 17.1238 30.327 17.1546 30.2764 17.1756C30.2258 17.1966 30.1715 17.2074 30.1167 17.2074C30.0619 17.2074 30.0076 17.1966 29.957 17.1756C29.9064 17.1546 29.8604 17.1238 29.8217 17.085L28.74 16.0283C24.19 11.5733 16.8117 11.5733 12.2617 16.0283L11.105 17.1617C11.0257 17.2385 10.9196 17.2815 10.8092 17.2815C10.6988 17.2815 10.5927 17.2385 10.5134 17.1617L7.82837 14.5317C7.75048 14.457 7.6885 14.3673 7.64616 14.2681C7.60382 14.1689 7.58199 14.0621 7.58199 13.9542C7.58199 13.8463 7.60382 13.7395 7.64616 13.6402C7.6885 13.541 7.75048 13.4513 7.82837 13.3767L8.68837 12.5317ZM37.865 17.97L40.255 20.31C40.3326 20.3851 40.3942 20.4749 40.4363 20.5743C40.4784 20.6736 40.5001 20.7804 40.5001 20.8883C40.5001 20.9962 40.4784 21.103 40.4363 21.2024C40.3942 21.3017 40.3326 21.3916 40.255 21.4667L29.4784 32.0183C29.3199 32.1716 29.108 32.2573 28.8875 32.2573C28.6671 32.2573 28.4552 32.1716 28.2967 32.0183L20.65 24.53C20.6107 24.4907 20.5573 24.4686 20.5017 24.4686C20.4461 24.4686 20.3927 24.4907 20.3534 24.53L12.705 32.0183C12.5465 32.1716 12.3347 32.2573 12.1142 32.2573C11.8937 32.2573 11.6819 32.1716 11.5234 32.0183L0.74504 21.4667C0.667521 21.3916 0.605882 21.3017 0.563787 21.2024C0.521692 21.103 0.5 20.9962 0.5 20.8883C0.5 20.7804 0.521692 20.6736 0.563787 20.5743C0.605882 20.4749 0.667521 20.3851 0.74504 20.31L3.13504 17.97C3.29354 17.8167 3.5054 17.7311 3.72587 17.7311C3.94635 17.7311 4.1582 17.8167 4.31671 17.97L11.965 25.4583C12.0484 25.5383 12.18 25.5383 12.2617 25.4583L19.91 17.97C20.0685 17.8167 20.2804 17.7311 20.5009 17.7311C20.7213 17.7311 20.9332 17.8167 21.0917 17.97L28.74 25.4583C28.8234 25.5383 28.9534 25.5383 29.0367 25.4583L36.685 17.97C36.8429 17.8161 37.0546 17.7299 37.275 17.7299C37.4955 17.7299 37.7072 17.8161 37.865 17.97Z" fill="#1B1B1B"/>
</g>
<defs>
<clipPath id="clip0_12_85">
<rect width="40" height="40" fill="white" transform="translate(0.5)"/>
</clipPath>
</defs>
</svg>
