<svg width="40" height="40" viewBox="0 0 40 40" fill="none" xmlns="http://www.w3.org/2000/svg">
<path d="M24.2885 5H15.7119C15.4252 5 15.1952 5.23333 15.1885 5.52667C15.0169 13.7117 10.8002 21.4833 3.54686 26.9867C3.43586 27.0709 3.36185 27.1949 3.3404 27.3326C3.31895 27.4703 3.35174 27.611 3.43186 27.725L8.4502 34.7783C8.49042 34.8352 8.54163 34.8835 8.6008 34.9203C8.65998 34.957 8.72593 34.9816 8.79475 34.9925C8.86357 35.0033 8.93387 35.0003 9.0015 34.9836C9.06913 34.9668 9.13273 34.9367 9.18853 34.895C13.7235 31.4783 17.3719 27.3533 20.0002 22.7817C22.6269 27.3533 26.2752 31.4783 30.8119 34.8967C31.0452 35.0733 31.3785 35.0183 31.5502 34.7783L36.5669 27.725C36.6472 27.6112 36.6802 27.4707 36.6591 27.333C36.638 27.1953 36.5643 27.0712 36.4535 26.9867C29.2002 21.4833 24.9852 13.7117 24.8119 5.52667C24.8114 5.38769 24.7563 5.25449 24.6583 5.15591C24.5604 5.05733 24.4275 5.00131 24.2885 5Z" fill="#FF875B"/>
</svg>
