<svg width="32" height="32" viewBox="0 0 32 32" fill="none" xmlns="http://www.w3.org/2000/svg">
<path fill-rule="evenodd" clip-rule="evenodd" d="M9.33301 17.3333C9.33301 13.6514 12.3178 10.6667 15.9997 10.6667C19.6816 10.6667 22.6663 13.6514 22.6663 17.3333C22.6663 21.0152 19.6816 24 15.9997 24C12.3178 24 9.33301 21.0152 9.33301 17.3333ZM15.9997 13.3333C13.7905 13.3333 11.9997 15.1242 11.9997 17.3333C11.9997 19.5425 13.7905 21.3333 15.9997 21.3333C18.2088 21.3333 19.9997 19.5425 19.9997 17.3333C19.9997 15.1242 18.2088 13.3333 15.9997 13.3333Z" fill="#4D4D4D"/>
<path d="M21.1299 12.2564C21.6644 12.4346 22.0839 12.8541 22.262 13.3886C22.4434 13.9326 23.2129 13.9326 23.3942 13.3886C23.5724 12.8541 23.9918 12.4346 24.5264 12.2564C25.0704 12.0751 25.0704 11.3056 24.5264 11.1243C23.9918 10.9461 23.5724 10.5266 23.3942 9.99211C23.2129 9.44809 22.4434 9.44809 22.262 9.99211C22.0839 10.5266 21.6644 10.9461 21.1299 11.1243C20.5859 11.3056 20.5859 12.0751 21.1299 12.2564Z" fill="#4D4D4D"/>
<path fill-rule="evenodd" clip-rule="evenodd" d="M9.88529 4.89543C10.8855 3.89523 12.242 3.33333 13.6565 3.33333H18.3428C19.7573 3.33333 21.1139 3.89523 22.1141 4.89542L23.0286 5.80996C23.284 6.06533 23.5885 6.26616 23.9238 6.40028L27.3138 7.75625C29.3386 8.56619 30.6663 10.5273 30.6663 12.7081V23.3333C30.6663 26.2788 28.2785 28.6667 25.333 28.6667H6.66634C3.72082 28.6667 1.33301 26.2788 1.33301 23.3333V12.7081C1.33301 10.5273 2.66075 8.56619 4.68559 7.75625L8.07551 6.40028C8.41082 6.26616 8.71539 6.06533 8.97075 5.80996L9.88529 4.89543ZM13.6565 5.99999C12.9493 5.99999 12.271 6.28095 11.7709 6.78104L10.8564 7.69558C10.3456 8.20631 9.7365 8.60797 9.06589 8.87622L5.67597 10.2322C4.66354 10.6372 3.99967 11.6177 3.99967 12.7081V23.3333C3.99967 24.8061 5.19358 26 6.66634 26H25.333C26.8058 26 27.9997 24.8061 27.9997 23.3333V12.7081C27.9997 11.6177 27.3358 10.6372 26.3234 10.2322L22.9335 8.87622C22.2628 8.60797 21.6537 8.20631 21.143 7.69558L20.2284 6.78104C19.7283 6.28095 19.0501 5.99999 18.3428 5.99999H13.6565Z" fill="#4D4D4D"/>
</svg>
