<svg width="41" height="40" viewBox="0 0 41 40" fill="none" xmlns="http://www.w3.org/2000/svg">
<path d="M20.5016 3.33333C11.2933 3.33333 3.83497 10.7917 3.83497 20C3.83195 23.4988 4.93123 26.9097 6.97672 29.7483C9.02222 32.5869 11.91 34.7091 15.23 35.8133C16.0633 35.9583 16.3766 35.4583 16.3766 35.02C16.3766 34.625 16.355 33.3133 16.355 31.9167C12.1683 32.6883 11.085 30.8967 10.7516 29.9583C10.5633 29.4783 9.75163 28 9.0433 27.6033C8.45997 27.2917 7.62663 26.52 9.02163 26.5C10.335 26.4783 11.2716 27.7083 11.585 28.2083C13.085 30.7283 15.48 30.02 16.4383 29.5833C16.585 28.5 17.0216 27.7717 17.5016 27.355C13.7933 26.9383 9.9183 25.5 9.9183 19.125C9.9183 17.3117 10.5633 15.8133 11.6266 14.6467C11.46 14.23 10.8766 12.5217 11.7933 10.23C11.7933 10.23 13.1883 9.79167 16.3766 11.9367C17.7336 11.5611 19.1353 11.3721 20.5433 11.375C21.96 11.375 23.3766 11.5617 24.71 11.9367C27.8983 9.77 29.2933 10.23 29.2933 10.23C30.21 12.5217 29.6266 14.23 29.46 14.6467C30.5216 15.8133 31.1683 17.2917 31.1683 19.125C31.1683 25.5217 27.2733 26.9383 23.565 27.355C24.1683 27.875 24.69 28.875 24.69 30.4383C24.69 32.6667 24.6683 34.4583 24.6683 35.0217C24.6683 35.4583 24.9816 35.9783 25.815 35.8117C29.1225 34.6935 31.9964 32.5668 34.0326 29.7306C36.0687 26.8945 37.1648 23.4914 37.1666 20C37.1666 10.7917 29.7083 3.33333 20.5 3.33333" fill="#1B1B1B"/>
</svg>
