<svg width="80" height="80" viewBox="0 0 80 80" fill="none" xmlns="http://www.w3.org/2000/svg">
<path d="M37.4383 56.566L44.9469 36.5046M51.8929 62.5968C51.8929 64.3811 51.0015 65.2725 49.2186 65.2711H45.2051C43.1255 65.2711 41.7884 66.171 41.1936 67.9706C40.6003 66.171 39.2624 65.2711 37.1801 65.2711H33.1477C31.3634 65.2711 30.4713 64.3797 30.4713 62.5968M33.1456 41.1731L22.4463 45.1866L33.0259 49.2212M49.2186 41.1731L59.941 45.1866L49.2186 49.2212" stroke="#FCF7F2" stroke-width="2" stroke-linecap="round" stroke-linejoin="round"/>
<path d="M14.3961 30.4508C27.7949 35.8246 38.5172 33.1482 49.2186 25.1001C49.2186 28.6687 48.3265 31.3513 46.5422 33.1482C54.5924 35.8225 59.941 27.7744 66.6309 27.7744C68.4124 27.7744 70.6486 28.6666 73.3397 30.4508C74.2312 26.8823 73.332 24.2073 70.6423 22.4258C70.6423 18.8573 72.4336 16.1823 76.0161 14.4009C72.4336 12.6026 68.8581 13.494 65.2896 17.0752C65.2896 11.7014 59.941 6.35279 54.5924 3.67639C56.3752 5.46066 57.2667 8.13565 57.2667 11.7014C46.5401 1.0021 38.5193 1.0021 27.7949 1.0021C30.4692 2.78496 32.2527 4.56852 33.1455 6.35279C22.4442 6.35279 14.3961 11.7014 3.69472 1C1.02253 17.0752 6.37112 25.1001 14.3961 30.4508ZM14.3961 30.4508V43.8475C14.3961 47.43 12.6132 49.2213 9.04751 49.2213C12.6132 49.2213 14.3961 51.0048 14.3961 54.5719V73.3193C14.3961 76.8878 17.0788 78.6714 22.4442 78.67" stroke="#FCF7F2" stroke-width="2" stroke-linecap="round" stroke-linejoin="round"/>
<path d="M59.9412 78.67C63.5097 78.67 65.2932 76.8864 65.2918 73.3193V54.5719C65.2918 51.0034 67.0747 49.2199 70.6404 49.2213C67.0747 49.2213 65.2918 47.43 65.2918 43.8475V28.3139" stroke="#FCF7F2" stroke-width="2" stroke-linecap="round" stroke-linejoin="round"/>
</svg>
