<svg width="72" height="72" viewBox="0 0 72 72" fill="none" xmlns="http://www.w3.org/2000/svg">
<path d="M57.75 8.25H14.25C12.6587 8.25 11.1326 8.88214 10.0074 10.0074C8.88214 11.1326 8.25 12.6587 8.25 14.25V57.75C8.25 59.3413 8.88214 60.8674 10.0074 61.9926C11.1326 63.1179 12.6587 63.75 14.25 63.75H57.75C59.3413 63.75 60.8674 63.1179 61.9926 61.9926C63.1179 60.8674 63.75 59.3413 63.75 57.75V14.25C63.75 12.6587 63.1179 11.1326 61.9926 10.0074C60.8674 8.88214 59.3413 8.25 57.75 8.25Z" stroke="#03581A" stroke-width="3" stroke-linecap="round" stroke-linejoin="round"/>
<path d="M23.085 63.75L31.2165 46.7205L33.2835 51.3465L38.496 36.9045L41.112 40.362L44.8845 32.0175L46.5765 34.1625L63.75 13.698" stroke="#03581A" stroke-width="3" stroke-linecap="round" stroke-linejoin="round"/>
<path d="M21.408 21.123H18.8325" stroke="#03581A" stroke-width="3" stroke-linecap="round" stroke-linejoin="round"/>
<path d="M21.408 21.123V28.392H26.2065C28.242 28.392 29.892 26.763 29.892 24.7575C29.892 22.752 28.242 21.1245 26.2065 21.123H21.408Z" stroke="#03581A" stroke-width="3" stroke-linejoin="round"/>
<path d="M21.408 28.3921V36.1396H26.523C28.692 36.1396 30.4515 34.4041 30.45 32.2666C30.45 30.1276 28.692 28.3936 26.5215 28.3921H21.408Z" stroke="#03581A" stroke-width="3" stroke-linejoin="round"/>
<path d="M21.408 36.135H18.8325M21.402 36.183V38.5665M25.5705 36.183V38.5665M21.402 18.498V20.883M25.5705 18.498V20.883" stroke="#03581A" stroke-width="3" stroke-linecap="round" stroke-linejoin="round"/>
</svg>
