<svg width="64" height="64" viewBox="0 0 64 64" fill="none" xmlns="http://www.w3.org/2000/svg">
<path d="M24 60H8C6.93913 60 5.92172 59.5786 5.17157 58.8284C4.42143 58.0783 4 57.0609 4 56V48C4 46.9391 4.42143 45.9217 5.17157 45.1716C5.92172 44.4214 6.93913 44 8 44H24C25.0609 44 26.0783 44.4214 26.8284 45.1716C27.5786 45.9217 28 46.9391 28 48V56C28 57.0609 27.5786 58.0783 26.8284 58.8284C26.0783 59.5786 25.0609 60 24 60ZM8 48V56H24V48H8ZM56 40H24C22.9391 40 21.9217 39.5786 21.1716 38.8284C20.4214 38.0783 20 37.0609 20 36V28C20 26.9391 20.4214 25.9217 21.1716 25.1716C21.9217 24.4214 22.9391 24 24 24H56C57.0609 24 58.0783 24.4214 58.8284 25.1716C59.5786 25.9217 60 26.9391 60 28V36C60 37.0609 59.5786 38.0783 58.8284 38.8284C58.0783 39.5786 57.0609 40 56 40ZM24 28V36H56V28H24ZM32 20H8C6.93913 20 5.92172 19.5786 5.17157 18.8284C4.42143 18.0783 4 17.0609 4 16V8C4 6.93913 4.42143 5.92172 5.17157 5.17157C5.92172 4.42143 6.93913 4 8 4H32C33.0609 4 34.0783 4.42143 34.8284 5.17157C35.5786 5.92172 36 6.93913 36 8V16C36 17.0609 35.5786 18.0783 34.8284 18.8284C34.0783 19.5786 33.0609 20 32 20ZM8 8V16H32V8H8Z" fill="#CA1B1B"/>
</svg>
