<svg width="72" height="72" viewBox="0 0 72 72" fill="none" xmlns="http://www.w3.org/2000/svg">
<path d="M56.25 67.5L51.525 65.25C47.7 63.45 45 59.4 45 55.125V40.5H67.5V55.125C67.5 59.4 65.025 63.45 60.975 65.25L56.25 67.5ZM49.5 45V55.125C49.5 57.825 51.075 60.075 53.325 61.2L56.25 62.55L59.175 61.2C61.425 60.075 63 57.6 63 55.125V45H49.5Z" fill="#03581A"/>
<path d="M49.5 27C51.9853 27 54 24.9853 54 22.5C54 20.0147 51.9853 18 49.5 18C47.0147 18 45 20.0147 45 22.5C45 24.9853 47.0147 27 49.5 27Z" fill="#03581A"/>
<path d="M47.25 4.5C36 4.5 27 13.5 27 24.75C27 26.775 27.225 28.8 27.9 30.6L4.5 54V67.5H18L40.5 45L37.35 41.85L31.05 48.15L27.9 45L24.75 48.15L27.9 51.3L24.3 54.9L21.15 51.75L18 54.9L21.15 58.05L16.2 63H9V55.8L31.05 33.75L32.85 31.95L32.175 29.25C31.725 27.675 31.5 26.325 31.5 24.75C31.5 15.975 38.475 9 47.25 9C56.025 9 63 15.975 63 24.75C63 28.125 61.875 31.275 60.075 33.75H65.25C66.6 31.05 67.275 27.9 67.275 24.75C67.5 13.5 58.5 4.5 47.25 4.5Z" fill="#03581A"/>
</svg>
