<svg width="272" height="272" viewBox="0 0 272 272" fill="none" xmlns="http://www.w3.org/2000/svg">
<path d="M215.334 235.167L189.154 133.167C198.834 121.123 204.076 106.117 204.001 90.6666C204.001 72.6319 196.837 55.3359 184.084 42.5834C171.332 29.8309 154.036 22.6667 136.001 22.6667C117.966 22.6667 100.67 29.8309 87.9177 42.5834C75.1652 55.3359 68.0009 72.6319 68.0009 90.6666C67.9699 106.237 73.3367 121.336 83.1876 133.393L56.6676 235.167C56.1035 237.342 56.1988 239.636 56.9413 241.757C57.6839 243.878 59.0403 245.73 60.838 247.078C62.6358 248.427 64.7938 249.21 67.0378 249.329C69.2819 249.448 71.5106 248.897 73.4409 247.747L133.848 212.273L198.221 247.86C199.958 248.916 201.97 249.429 204.001 249.333C205.761 249.389 207.509 249.035 209.108 248.297C210.707 247.56 212.112 246.46 213.212 245.086C214.312 243.711 215.076 242.099 215.445 240.377C215.813 238.655 215.775 236.871 215.334 235.167ZM136.001 45.3333C144.967 45.3333 153.732 47.9921 161.187 52.9734C168.642 57.9547 174.452 65.0348 177.883 73.3183C181.315 81.6019 182.212 90.7169 180.463 99.5107C178.714 108.305 174.396 116.382 168.056 122.722C161.716 129.062 153.639 133.38 144.845 135.129C136.051 136.878 126.936 135.98 118.653 132.549C110.369 129.118 103.289 123.308 98.3076 115.852C93.3263 108.397 90.6676 99.6327 90.6676 90.6666C90.6676 78.6435 95.4438 67.1128 103.945 58.6111C112.447 50.1095 123.978 45.3333 136.001 45.3333Z" fill="#EC159D"/>
</svg>
