<svg width="32" height="32" viewBox="0 0 32 32" fill="none" xmlns="http://www.w3.org/2000/svg">
<path fill-rule="evenodd" clip-rule="evenodd" d="M5.33333 15.3333C3.49238 15.3333 2 13.8409 2 12V5.33333C2 3.49238 3.49238 2 5.33333 2H12C13.8409 2 15.3333 3.49238 15.3333 5.33333V12C15.3333 13.8409 13.841 15.3333 12 15.3333H5.33333ZM4.66667 12C4.66667 12.3682 4.96514 12.6667 5.33333 12.6667L12 12.6667C12.3682 12.6667 12.6667 12.3682 12.6667 12V5.33333C12.6667 4.96514 12.3682 4.66667 12 4.66667L5.33333 4.66667C4.96514 4.66667 4.66667 4.96514 4.66667 5.33333L4.66667 12Z" fill="#4D4D4D"/>
<path fill-rule="evenodd" clip-rule="evenodd" d="M2 26.6667C2 28.5076 3.49238 30 5.33333 30H12C13.841 30 15.3333 28.5076 15.3333 26.6667V20C15.3333 18.1591 13.8409 16.6667 12 16.6667H5.33333C3.49238 16.6667 2 18.1591 2 20V26.6667ZM5.33333 27.3333C4.96514 27.3333 4.66667 27.0349 4.66667 26.6667L4.66667 20C4.66667 19.6318 4.96514 19.3333 5.33333 19.3333H12C12.3682 19.3333 12.6667 19.6318 12.6667 20V26.6667C12.6667 27.0349 12.3682 27.3333 12 27.3333H5.33333Z" fill="#4D4D4D"/>
<path fill-rule="evenodd" clip-rule="evenodd" d="M16.6667 26.6667C16.6667 28.5076 18.1591 30 20 30H26.6667C28.5076 30 30 28.5076 30 26.6667V20C30 18.159 28.5076 16.6667 26.6667 16.6667H20C18.159 16.6667 16.6667 18.1591 16.6667 20V26.6667ZM20 27.3333C19.6318 27.3333 19.3333 27.0349 19.3333 26.6667V20C19.3333 19.6318 19.6318 19.3333 20 19.3333H26.6667C27.0349 19.3333 27.3333 19.6318 27.3333 20V26.6667C27.3333 27.0349 27.0349 27.3333 26.6667 27.3333H20Z" fill="#4D4D4D"/>
<path fill-rule="evenodd" clip-rule="evenodd" d="M16.6667 12C16.6667 13.8409 18.1591 15.3333 20 15.3333H26.6667C28.5076 15.3333 30 13.8409 30 12V5.33333C30 3.49238 28.5076 2 26.6667 2H20C18.159 2 16.6667 3.49238 16.6667 5.33333V12ZM20 12.6667C19.6318 12.6667 19.3333 12.3682 19.3333 12V5.33333C19.3333 4.96514 19.6318 4.66667 20 4.66667L26.6667 4.66667C27.0349 4.66667 27.3333 4.96514 27.3333 5.33333V12C27.3333 12.3682 27.0349 12.6667 26.6667 12.6667L20 12.6667Z" fill="#4D4D4D"/>
</svg>
