<svg width="72" height="72" viewBox="0 0 72 72" fill="none" xmlns="http://www.w3.org/2000/svg">
<path d="M39 6H30C18.681 6 13.026 6 9.51 9.516C6 13.029 6 18.687 6 30C6 41.313 6 46.971 9.51 50.484C13.032 54 18.687 54 30 54H42C53.31 54 58.968 54 62.484 50.484C64.443 48.525 65.31 45.9 65.694 42M36 54V66M24 66H48M33 45H39" stroke="#FF6B01" stroke-width="3" stroke-linecap="round" stroke-linejoin="round"/>
<path d="M50.2499 16.1279V12.3659C50.2529 11.1749 50.1479 10.0259 50.7179 8.97595C52.8479 4.73395 58.9679 5.16595 60.4829 9.48595C60.7439 10.1999 60.7589 11.3249 60.7529 12.3659C60.7409 13.6979 60.7679 16.1279 60.7679 16.1279M50.2499 16.1279C47.0099 16.1279 45.6509 18.4679 45.2909 19.9079C44.9309 21.3479 44.9309 26.568 45.1469 28.728C45.8669 31.428 47.6669 32.5439 49.4309 32.9039C51.0509 33.0479 57.8909 32.9939 59.8709 32.9939C62.7509 33.0479 64.9109 31.968 65.8109 28.728C65.9909 27.648 66.1709 21.7079 65.7209 19.9079C64.7639 17.0279 62.5679 16.1279 60.7679 16.1279M50.2499 16.1279H60.7679" stroke="#FF6B01" stroke-width="3" stroke-linecap="round" stroke-linejoin="round"/>
</svg>
