<svg width="72" height="72" viewBox="0 0 72 72" fill="none" xmlns="http://www.w3.org/2000/svg">
<path d="M36 51C36.681 51 37.314 50.682 38.58 50.046L48.75 44.934C53.25 42.672 55.5 41.541 55.5 39.75V17.25M36 51C35.319 51 34.686 50.682 33.42 50.046L23.25 44.934C18.75 42.672 16.5 41.541 16.5 39.75V17.25M36 51V28.5M55.5 17.25C55.5 15.459 53.25 14.328 48.75 12.066L38.58 6.954C37.314 6.318 36.681 6 36 6C35.319 6 34.686 6.318 33.42 6.954L23.25 12.066C18.75 14.328 16.5 15.459 16.5 17.25M55.5 17.25C55.5 19.041 53.25 20.172 48.75 22.434L38.58 27.546C37.314 28.182 36.681 28.5 36 28.5M16.5 17.25C16.5 19.041 18.75 20.172 23.25 22.434L33.42 27.546C34.686 28.182 35.319 28.5 36 28.5M30 62.25C30 60.18 31.68 58.5 33.75 58.5H38.25C40.32 58.5 42 60.18 42 62.25M30 62.25C30 64.32 31.68 66 33.75 66H38.25C40.32 66 42 64.32 42 62.25M30 62.25H15M42 62.25H57" stroke="#03581A" stroke-width="3" stroke-linecap="round" stroke-linejoin="round"/>
</svg>
