<svg width="72" height="72" viewBox="0 0 72 72" fill="none" xmlns="http://www.w3.org/2000/svg">
<path d="M54 61.5C56.667 60.9 58.692 59.916 60.327 58.299C64.5 54.165 64.5 47.517 64.5 34.215C64.5 20.913 64.5 14.265 60.327 10.131C56.151 6 49.437 6 36 6C22.566 6 15.846 6 11.673 10.131C7.5 14.262 7.5 20.913 7.5 34.215C7.5 47.517 7.5 54.165 11.673 58.299C13.308 59.919 15.333 60.9 18 61.5M7.5 25.5H64.5M21 16.5H21.027M33 16.5H33.027" stroke="#FF6B01" stroke-width="3" stroke-linecap="round" stroke-linejoin="round"/>
<path d="M36.0001 39C31.7221 39 28.95 41.727 25.674 42.72C24.342 43.122 23.6761 43.326 23.4061 43.611C23.1361 43.896 23.0581 44.31 22.8991 45.141C21.2101 54.048 24.9031 62.28 33.7141 65.481C34.6591 65.829 35.1331 66 36.0031 66C36.8731 66 37.3441 65.829 38.2921 65.484C47.1001 62.28 50.7901 54.048 49.1011 45.144C48.9421 44.31 48.8611 43.893 48.5941 43.611C48.3271 43.329 47.6581 43.122 46.3261 42.72C43.0471 41.727 40.272 39 35.997 39" stroke="#FF6B01" stroke-width="3" stroke-linecap="round" stroke-linejoin="round"/>
</svg>
