<svg width="72" height="72" viewBox="0 0 72 72" fill="none" xmlns="http://www.w3.org/2000/svg">
<path d="M60 30.384C60 18.888 60 13.143 56.484 9.57C52.968 5.997 47.313 6 36 6H30C18.687 6 13.029 6 9.516 9.57C6.003 13.14 6 18.888 6 30.384C6 41.88 6 47.625 9.516 51.198C10.926 52.629 12.678 53.487 15 54" stroke="#03581A" stroke-width="3" stroke-linecap="round" stroke-linejoin="round"/>
<path d="M66 52.5C66 46.875 66 44.064 64.569 42.09C64.1065 41.4534 63.5466 40.8935 62.91 40.431C60.936 39 58.125 39 52.5 39H37.5C31.875 39 29.064 39 27.09 40.431C26.4534 40.8935 25.8935 41.4534 25.431 42.09C24 44.067 24 46.878 24 52.5C24 58.122 24 60.936 25.431 62.91C25.8945 63.5468 26.4553 64.1067 27.093 64.569C29.064 66 31.875 66 37.5 66H52.5C58.125 66 60.936 66 62.91 64.569C63.5466 64.1065 64.1065 63.5466 64.569 62.91C66 60.936 66 58.125 66 52.5Z" stroke="#03581A" stroke-width="3" stroke-linecap="round" stroke-linejoin="round"/>
<path d="M49.5 48L52.26 50.379C53.421 51.378 54 51.879 54 52.5C54 53.121 53.421 53.622 52.26 54.621L49.5 57M40.5 48L37.74 50.379C36.579 51.378 36 51.879 36 52.5C36 53.121 36.579 53.622 37.74 54.621L40.5 57M7.5 18H58.5" stroke="#03581A" stroke-width="3" stroke-linecap="round" stroke-linejoin="round"/>
</svg>
