<svg width="72" height="72" viewBox="0 0 72 72" fill="none" xmlns="http://www.w3.org/2000/svg">
<path d="M30.042 6C18.708 6 13.041 6 9.522 9.516C6.003 13.032 6 18.687 6 30C6 41.313 6 46.971 9.522 50.484C13.044 53.997 18.708 54 30.042 54H42.063C53.397 54 59.064 54 62.583 50.484C65.013 48.06 65.766 44.616 66 39M36 54V66M24 66H48M33 45H39" stroke="#CA1B8A" stroke-width="3" stroke-linecap="round" stroke-linejoin="round"/>
<path d="M46.5 30V36M55.5 30V36M46.5 6V12M55.5 6V12M42 16.5H36M42 25.5H36M66 16.5H60M66 25.5H60M54 12H48C45.171 12 43.758 12 42.879 12.879C42 13.758 42 15.171 42 18V24C42 26.829 42 28.242 42.879 29.121C43.758 30 45.171 30 48 30H54C56.829 30 58.242 30 59.121 29.121C60 28.242 60 26.829 60 24V18C60 15.171 60 13.758 59.121 12.879C58.242 12 56.829 12 54 12Z" stroke="#CA1B8A" stroke-width="3" stroke-linecap="round" stroke-linejoin="round"/>
</svg>
