<svg width="72" height="72" viewBox="0 0 72 72" fill="none" xmlns="http://www.w3.org/2000/svg">
<path d="M36 57C36.63 57 37.212 56.703 38.379 56.109L47.769 51.339C51.924 49.227 54 48.171 54 46.5V25.5M36 57C35.37 57 34.788 56.703 33.621 56.109L24.231 51.339C20.076 49.227 18 48.171 18 46.5V25.5M36 57V36M54 25.5C54 23.829 51.924 22.77 47.769 20.661L38.379 15.891C37.212 15.297 36.63 15 36 15C35.37 15 34.788 15.297 33.621 15.891L24.231 20.661C20.076 22.773 18 23.829 18 25.5M54 25.5C54 27.171 51.924 28.23 47.769 30.339L38.379 35.109C37.212 35.703 36.627 36 36 36M18 25.5C18 27.171 20.076 28.23 24.231 30.339L33.621 35.109C34.788 35.703 35.373 36 36 36" stroke="#CA1B8A" stroke-width="3" stroke-linecap="round" stroke-linejoin="round"/>
<path d="M39.57 64.728L53.652 57.912C59.883 54.9 63 53.388 63 51V21C63 18.612 59.883 17.103 53.652 14.088L39.57 7.272C37.818 6.423 36.942 6 36 6C35.058 6 34.182 6.423 32.43 7.272L18.348 14.088C12.117 17.1 9 18.612 9 21V51C9 53.388 12.117 54.897 18.348 57.912L32.43 64.728C34.182 65.577 35.058 66 36 66C36.942 66 37.818 65.577 39.57 64.728Z" stroke="#CA1B8A" stroke-width="3" stroke-linecap="round" stroke-linejoin="round"/>
</svg>
