<svg width="72" height="72" viewBox="0 0 72 72" fill="none" xmlns="http://www.w3.org/2000/svg">
<path d="M36 66C36.732 66 37.413 65.661 38.778 64.98L49.728 59.529C54.579 57.12 57 55.911 57 54V30M36 66C35.268 66 34.587 65.661 33.222 64.98L22.272 59.529C17.421 57.12 15 55.911 15 54V30M36 66V42M57 30C57 28.089 54.576 26.883 49.731 24.471L38.778 19.017C37.41 18.339 36.732 18 36 18M57 30C57 31.911 54.576 33.117 49.731 35.529L38.778 40.983C37.413 41.661 36.732 42 36 42M15 30C15 28.089 17.421 26.88 22.272 24.471L33.222 19.02C34.587 18.339 35.268 18 36 18M15 30C15 31.911 17.424 33.117 22.269 35.529L33.222 40.983C34.587 41.661 35.268 42 36 42M36 18V6M66 63L57 55.5M6 63L15 55.5" stroke="#FF6B01" stroke-width="3" stroke-linecap="round" stroke-linejoin="round"/>
</svg>
