<svg width="72" height="72" viewBox="0 0 72 72" fill="none" xmlns="http://www.w3.org/2000/svg">
<path d="M16.5 31.5C16.866 31.5 17.208 31.332 17.889 30.99L23.364 28.266C25.788 27.057 27 26.454 27 25.5V13.5M16.5 31.5C16.134 31.5 15.792 31.332 15.111 30.99L9.636 28.266C7.212 27.057 6 26.454 6 25.5V13.5M16.5 31.5V19.5M27 13.5C27 12.546 25.788 11.94 23.364 10.734L17.889 8.01C17.208 7.671 16.869 7.5 16.5 7.5C16.134 7.5 15.792 7.671 15.111 8.01L9.636 10.734C7.212 11.943 6 12.546 6 13.5M27 13.5C27 14.454 25.788 15.06 23.364 16.266L17.889 18.99C17.208 19.329 16.869 19.5 16.5 19.5M6 13.5C6 14.454 7.212 15.06 9.636 16.266L15.111 18.99C15.792 19.329 16.131 19.5 16.5 19.5M55.5 31.5C55.866 31.5 56.208 31.332 56.889 30.99L62.364 28.266C64.788 27.057 66 26.454 66 25.5V13.5M55.5 31.5C55.134 31.5 54.792 31.332 54.111 30.99L48.636 28.266C46.212 27.057 45 26.454 45 25.5V13.5M55.5 31.5V19.5M66 13.5C66 12.546 64.788 11.94 62.364 10.734L56.889 8.01C56.208 7.671 55.869 7.5 55.5 7.5C55.134 7.5 54.792 7.671 54.111 8.01L48.636 10.734C46.212 11.943 45 12.546 45 13.5M66 13.5C66 14.454 64.788 15.06 62.364 16.266L56.889 18.99C56.208 19.329 55.869 19.5 55.5 19.5M45 13.5C45 14.454 46.212 15.06 48.636 16.266L54.111 18.99C54.792 19.329 55.131 19.5 55.5 19.5M34.5 19.5H37.5M6 37.5V48C6 52.212 6 54.321 7.011 55.833C7.44887 56.4884 8.01158 57.0511 8.667 57.489C10.179 58.5 12.288 58.5 16.5 58.5M66 37.5V48C66 52.212 66 54.321 64.989 55.833C64.5511 56.4884 63.9884 57.0511 63.333 57.489C61.821 58.5 59.712 58.5 55.5 58.5M30.75 50.793C31.274 50.787 31.857 50.785 32.499 50.787H39.501C40.141 50.787 40.724 50.789 41.25 50.793M30.75 50.793C28.581 50.823 27.351 50.982 26.526 51.789C25.5 52.794 25.5 54.411 25.5 57.642C25.5 60.876 25.5 62.493 26.526 63.495C27.549 64.5 29.199 64.5 32.499 64.5H39.501C42.801 64.5 44.451 64.5 45.474 63.495C46.5 62.493 46.5 60.876 46.5 57.645C46.5 54.411 46.5 52.794 45.474 51.789C44.649 50.979 43.419 50.823 41.25 50.793M30.75 50.793V45.642C30.75 42.801 33.102 40.5 36 40.5C38.898 40.5 41.25 42.804 41.25 45.642V50.793" stroke="#CA1B8A" stroke-width="3" stroke-linecap="round" stroke-linejoin="round"/>
</svg>
