<svg width="72" height="72" viewBox="0 0 72 72" fill="none" xmlns="http://www.w3.org/2000/svg">
<path d="M16.5 30C16.866 30 17.208 29.829 17.889 29.49L23.364 26.766C25.788 25.557 27 24.954 27 24V12M16.5 30C16.134 30 15.792 29.829 15.111 29.49L9.636 26.766C7.212 25.557 6 24.954 6 24V12M16.5 30V18M27 12C27 11.046 25.788 10.44 23.364 9.234L17.889 6.51C17.208 6.171 16.869 6 16.5 6C16.134 6 15.792 6.171 15.111 6.51L9.636 9.234C7.212 10.443 6 11.046 6 12M27 12C27 12.954 25.788 13.56 23.364 14.766L17.889 17.49C17.208 17.829 16.869 18 16.5 18M6 12C6 12.954 7.212 13.56 9.636 14.766L15.111 17.49C15.792 17.829 16.131 18 16.5 18M55.5 30C55.866 30 56.208 29.829 56.889 29.49L62.364 26.766C64.788 25.557 66 24.954 66 24V12M55.5 30C55.134 30 54.792 29.829 54.111 29.49L48.636 26.766C46.212 25.557 45 24.954 45 24V12M55.5 30V18M66 12C66 11.046 64.788 10.44 62.364 9.234L56.889 6.51C56.208 6.171 55.869 6 55.5 6C55.134 6 54.792 6.171 54.111 6.51L48.636 9.234C46.212 10.443 45 11.046 45 12M66 12C66 12.954 64.788 13.56 62.364 14.766L56.889 17.49C56.208 17.829 55.869 18 55.5 18M45 12C45 12.954 46.212 13.56 48.636 14.766L54.111 17.49C54.792 17.829 55.131 18 55.5 18M34.5 18H37.5M6 36V46.5C6 50.712 6 52.821 7.011 54.333C7.44887 54.9884 8.01158 55.5511 8.667 55.989C10.179 57 12.288 57 16.5 57M66 36V46.5C66 50.712 66 52.821 64.989 54.333C64.5511 54.9884 63.9884 55.5511 63.333 55.989C61.821 57 59.712 57 55.5 57M36 66C36.366 66 36.708 65.832 37.389 65.49L42.864 62.766C45.288 61.56 46.5 60.954 46.5 60V48M36 66C35.634 66 35.292 65.832 34.611 65.49L29.136 62.766C26.712 61.56 25.5 60.954 25.5 60V48M36 66V54M46.5 48C46.5 47.046 45.288 46.44 42.864 45.234L37.389 42.51C36.708 42.168 36.369 42 36 42C35.634 42 35.292 42.168 34.611 42.51L29.136 45.234C26.712 46.44 25.5 47.046 25.5 48M46.5 48C46.5 48.954 45.288 49.56 42.864 50.766L37.389 53.49C36.708 53.832 36.369 54 36 54M25.5 48C25.5 48.954 26.712 49.56 29.136 50.766L34.611 53.49C35.292 53.832 35.631 54 36 54" stroke="#FF6B01" stroke-width="3" stroke-linecap="round" stroke-linejoin="round"/>
</svg>
