<svg width="72" height="72" viewBox="0 0 72 72" fill="none" xmlns="http://www.w3.org/2000/svg">
<path d="M57 61.5C58.275 60.927 59.37 60.183 60.327 59.22C64.5 55.014 64.5 48.246 64.5 34.71C64.5 21.177 64.5 14.409 60.327 10.206C56.151 6 49.437 6 36 6C22.566 6 15.846 6 11.673 10.206C7.5 14.412 7.5 21.177 7.5 34.71C7.5 48.243 7.5 55.011 11.673 59.217C12.633 60.18 13.725 60.924 15 61.497M7.5 25.5H64.5M21 16.5H21.027M33 16.5H33.027" stroke="#CA1B8A" stroke-width="3" stroke-linecap="round" stroke-linejoin="round"/>
<path d="M30.7799 49.134C27.5399 49.134 26.1509 51.474 25.7909 52.914C25.4309 54.351 25.4309 59.568 25.6469 61.728C26.3669 64.425 28.1669 65.538 29.9309 65.898C31.5509 66.045 38.3909 65.988 40.3709 65.988C43.2509 66.045 45.4109 64.965 46.3109 61.728C46.4909 60.648 46.6709 54.708 46.2209 52.911C45.2669 50.031 43.0799 49.134 41.2799 49.134M30.7799 49.134H41.2799M30.7799 49.134C30.7799 48.954 30.7739 46.656 30.7799 45.354C30.7799 44.16 30.6779 43.014 31.2479 41.964C33.3779 37.725 39.4979 38.154 41.0099 42.474C41.2709 43.185 41.2889 44.31 41.2799 45.354C41.2709 46.68 41.2799 49.134 41.2799 49.134" stroke="#CA1B8A" stroke-width="3" stroke-linecap="round" stroke-linejoin="round"/>
</svg>
