<svg width="72" height="72" viewBox="0 0 72 72" fill="none" xmlns="http://www.w3.org/2000/svg">
<path d="M39 6H30C18.681 6 13.026 6 9.51 9.516C6 13.029 6 18.687 6 30C6 41.313 6 46.971 9.51 50.484C13.032 54 18.687 54 30 54H42C53.31 54 58.968 54 62.484 50.484C64.443 48.525 65.31 45.9 65.694 42M36 54V66M24 66H48M33 45H39" stroke="#03581A" stroke-width="3" stroke-linecap="round" stroke-linejoin="round"/>
<path d="M48 9L43.4142 13.5858C42.6332 14.3668 42.6332 15.6332 43.4142 16.4142L48 21" stroke="#03581A" stroke-width="3" stroke-linecap="round" stroke-linejoin="round"/>
<path d="M57 9L61.5858 13.5858C62.3668 14.3668 62.3668 15.6332 61.5858 16.4142L57 21" stroke="#03581A" stroke-width="3" stroke-linecap="round" stroke-linejoin="round"/>
</svg>
