<svg width="88" height="88" viewBox="0 0 88 88" fill="none" xmlns="http://www.w3.org/2000/svg">
<path d="M58.575 16.5C58.3562 16.5 58.1464 16.5869 57.9916 16.7416C57.8369 16.8964 57.75 17.1062 57.75 17.325V32.4417L54.3235 30.4425C54.1119 30.3177 53.8707 30.2519 53.625 30.2519C53.3793 30.2519 53.1381 30.3177 52.9265 30.4425L44.693 35.244C44.4817 35.3647 44.3063 35.5392 44.1845 35.7499C44.0628 35.9605 43.9991 36.1997 44 36.443V46.057C44 46.552 44.264 47.0085 44.693 47.256L52.9265 52.0575C53.1381 52.1823 53.3793 52.2481 53.625 52.2481C53.8707 52.2481 54.1119 52.1823 54.3235 52.0575L62.557 47.256C62.7683 47.1353 62.9437 46.9608 63.0655 46.7501C63.1872 46.5395 63.2509 46.3003 63.25 46.057V19.8825C63.2496 19.6426 63.1864 19.407 63.0668 19.1991C62.9472 18.9912 62.7752 18.8182 62.568 18.6972L58.9847 16.6127C58.8612 16.5405 58.7209 16.5016 58.5778 16.5H58.575ZM31.625 30.2555C31.3797 30.2544 31.1385 30.319 30.9265 30.4425L22.693 35.244C22.4817 35.3647 22.3063 35.5392 22.1845 35.7499C22.0628 35.9605 21.9991 36.1997 22 36.443V46.057C22 46.552 22.264 47.0085 22.693 47.256L30.9265 52.0575C31.3583 52.305 31.889 52.305 32.3235 52.0575L40.557 47.256C40.7683 47.1353 40.9437 46.9608 41.0655 46.7501C41.1872 46.5395 41.2509 46.3003 41.25 46.057V36.443C41.2509 36.1997 41.1872 35.9605 41.0655 35.7499C40.9437 35.5392 40.7683 35.3647 40.557 35.244L32.3235 30.4425C32.1115 30.319 31.8703 30.2544 31.625 30.2555ZM75.625 30.2555C75.3797 30.2544 75.1385 30.319 74.9265 30.4425L66.693 35.244C66.4817 35.3647 66.3063 35.5392 66.1845 35.7499C66.0628 35.9605 65.9991 36.1997 66 36.443V46.057C66 46.552 66.264 47.0085 66.693 47.256L74.679 52.0822C74.8903 52.2098 75.132 52.2781 75.3787 52.28C75.6255 52.282 75.8683 52.2174 76.0815 52.0933L80.0085 49.8108C80.1009 49.7563 80.1775 49.6787 80.2307 49.5857C80.2839 49.4926 80.3118 49.3872 80.3118 49.28C80.3118 49.1728 80.2839 49.0674 80.2307 48.9743C80.1775 48.8813 80.1009 48.8037 80.0085 48.7492L71.5 43.736V38.8025L75.625 36.4018L79.75 38.8025V42.24C79.75 42.6992 80.135 42.7708 80.3935 42.6167L84.568 40.1885C84.7752 40.0676 84.9472 39.8946 85.0668 39.6867C85.1864 39.4787 85.2496 39.2431 85.25 39.0032V36.4458C85.2509 36.2025 85.1872 35.9633 85.0655 35.7526C84.9437 35.542 84.7683 35.3674 84.557 35.2468L76.3235 30.4453C76.1115 30.3217 75.8703 30.2571 75.625 30.2583V30.2555ZM9.625 30.261C9.37965 30.2599 9.13848 30.3245 8.9265 30.448L0.693 35.244C0.482805 35.3673 0.308353 35.5432 0.186834 35.7544C0.0653148 35.9656 0.000921858 36.2048 0 36.4485L0 48.7217C0 49.3212 0.649 49.6925 1.166 49.3927L4.818 47.267C5.02559 47.1459 5.19781 46.9724 5.31747 46.764C5.43714 46.5555 5.50007 46.3194 5.5 46.079V38.8107L9.625 36.4045L13.75 38.8107V46.079C13.7504 46.3189 13.8136 46.5545 13.9332 46.7624C14.0529 46.9703 14.2248 47.1433 14.432 47.2643L18.084 49.3927C18.2019 49.4615 18.3359 49.4979 18.4724 49.4982C18.6088 49.4986 18.743 49.463 18.8613 49.3949C18.9796 49.3268 19.0778 49.2287 19.1461 49.1105C19.2143 48.9923 19.2502 48.8582 19.25 48.7217V36.4485C19.2491 36.2048 19.1847 35.9656 19.0632 35.7544C18.9416 35.5432 18.7672 35.3673 18.557 35.244L10.3235 30.448C10.1115 30.3245 9.87035 30.2599 9.625 30.261ZM53.625 36.399L57.75 38.8053V43.6947L53.625 46.101L49.5 43.6947V38.8025L53.625 36.3962V36.399ZM75.625 38.511L73.2682 39.886V42.6305L75.625 44L77.9818 42.6305V39.886L75.625 38.511ZM42.3665 49.4945C42.0807 49.4923 41.7993 49.5643 41.5498 49.7035L33.8167 54.175C33.5687 54.317 33.3625 54.5219 33.219 54.7692C33.0756 55.0164 33 55.2972 33 55.583V64.5095C33 65.0843 33.3218 65.626 33.8167 65.9175L35.8517 67.078C36.828 67.5592 37.1883 67.5592 37.631 67.5592C39.0885 67.5592 39.919 66.6875 39.919 65.1475V56.3283C39.9205 56.298 39.9158 56.2677 39.9051 56.2394C39.8943 56.211 39.8779 56.1852 39.8567 56.1635C39.8355 56.1418 39.8101 56.1247 39.782 56.1133C39.7539 56.1019 39.7238 56.0965 39.6935 56.0973H38.7145C38.6532 56.0973 38.5945 56.1216 38.5512 56.1649C38.5078 56.2082 38.4835 56.267 38.4835 56.3283V65.1475C38.4835 65.8158 37.7767 66.5033 36.6245 65.9285L34.507 64.7075C34.4725 64.6857 34.4438 64.6558 34.4237 64.6203C34.4035 64.5848 34.3925 64.5448 34.3915 64.504V55.5775C34.3915 55.4977 34.43 55.4043 34.5098 55.363L42.2428 50.9053C42.2797 50.8845 42.3214 50.8737 42.3638 50.8737C42.4061 50.8737 42.4478 50.8845 42.4848 50.9053L50.226 55.3603C50.3057 55.4043 50.3442 55.484 50.3442 55.5775V64.504C50.3425 64.5465 50.3308 64.5879 50.3103 64.6251C50.2898 64.6624 50.2609 64.6943 50.226 64.7185L42.4848 69.1927C42.4478 69.2135 42.4061 69.2243 42.3638 69.2243C42.3214 69.2243 42.2797 69.2135 42.2428 69.1927L40.2682 68.0158C40.2132 67.9883 40.1308 67.9745 40.0785 68.002C39.7163 68.2335 39.324 68.414 38.9125 68.5382C38.7777 68.5795 38.5962 68.662 38.984 68.8765L41.5498 70.4027C41.8006 70.5395 42.0809 70.6131 42.3665 70.6173C42.6509 70.6194 42.9302 70.5412 43.1723 70.3918L50.908 65.9175C51.1561 65.7756 51.3623 65.5706 51.5057 65.3233C51.6491 65.0761 51.7247 64.7953 51.7248 64.5095V55.583C51.722 55.2977 51.6452 55.0181 51.5021 54.7713C51.3589 54.5245 51.1542 54.3191 50.908 54.175L43.1723 49.7063C42.9259 49.5689 42.6485 49.4969 42.3665 49.4973V49.4945ZM54.4307 53.614C54.2357 53.6144 54.0427 53.6531 53.8627 53.7281C53.6826 53.8031 53.5191 53.9127 53.3815 54.0509C53.2439 54.189 53.1348 54.3529 53.0605 54.5333C52.9862 54.7136 52.9481 54.9067 52.9485 55.1018C52.9489 55.2968 52.9876 55.4898 53.0626 55.6698C53.1376 55.8499 53.2472 56.0134 53.3854 56.151C53.5235 56.2886 53.6874 56.3977 53.8678 56.472C54.0481 56.5463 54.2412 56.5844 54.4362 56.584C54.8301 56.5833 55.2075 56.4261 55.4855 56.1471C55.7635 55.8681 55.9192 55.4901 55.9185 55.0962C55.9178 54.7024 55.7606 54.325 55.4816 54.047C55.2026 53.769 54.8246 53.6133 54.4307 53.614ZM54.4143 53.8505C55.1128 53.8505 55.6792 54.4005 55.6792 55.0962C55.6743 55.4302 55.5394 55.7491 55.3032 55.9852C55.0671 56.2214 54.7482 56.3563 54.4143 56.3613C54.0821 56.3576 53.765 56.2224 53.5325 55.9852C53.3 55.7481 53.1711 55.4284 53.174 55.0962C53.1729 54.9328 53.2042 54.7708 53.2661 54.6195C53.328 54.4682 53.4192 54.3307 53.5345 54.2149C53.6498 54.0991 53.7869 54.0072 53.9379 53.9447C54.0889 53.8821 54.2508 53.8501 54.4143 53.8505ZM53.8725 54.2547V55.924H54.1888V55.2585H54.4857C54.6068 55.2585 54.6343 55.308 54.6618 55.4015C54.6618 55.4152 54.7113 55.8497 54.725 55.9295H55.0687C55.0247 55.7846 54.998 55.6351 54.989 55.484C54.9505 55.2695 54.9395 55.121 54.7113 55.1073C54.8323 55.066 55.033 55.0028 55.033 54.6947C55.033 54.252 54.648 54.2547 54.4473 54.2547H53.8725ZM54.1888 54.5215H54.4582C54.5407 54.5215 54.7003 54.5215 54.7003 54.747C54.7003 54.8405 54.659 54.9945 54.4418 54.989H54.1888V54.5215ZM44.44 55.8855C42.2318 55.8855 40.92 56.8288 40.92 58.3797C40.92 60.0793 42.2345 60.533 44.3493 60.7448C46.8793 61.0005 47.0772 61.3635 47.0772 61.8585C47.0772 62.7275 46.3787 63.0877 44.7453 63.0877C42.6965 63.0877 42.2482 62.5817 42.0998 61.5642C42.086 61.4542 41.9897 61.3745 41.8688 61.3745H40.8623C40.832 61.3737 40.8018 61.3792 40.7737 61.3906C40.7456 61.402 40.7202 61.4191 40.699 61.4407C40.6779 61.4624 40.6614 61.4883 40.6507 61.5166C40.64 61.545 40.6352 61.5752 40.6367 61.6055C40.6367 62.9035 41.3463 64.4572 44.7315 64.4572C47.2148 64.4572 48.62 63.4948 48.62 61.8063C48.62 60.1343 47.4925 59.6887 45.111 59.367C42.702 59.0452 42.4627 58.883 42.4627 58.3193C42.4627 57.8518 42.6607 57.2385 44.4427 57.2385C46.0322 57.2385 46.6262 57.5877 46.8682 58.6575C46.8976 58.7693 46.9672 58.8271 47.0772 58.8307H48.081C48.1488 58.8271 48.2029 58.8051 48.2432 58.7647C48.2872 58.7152 48.3056 58.6584 48.2982 58.5942C48.1387 56.7462 46.9178 55.8855 44.44 55.8855Z" fill="#1B1B1B"/>
</svg>
