<svg width="80" height="80" viewBox="0 0 80 80" fill="none" xmlns="http://www.w3.org/2000/svg">
<rect width="80" height="80" rx="8" fill="#00325F"/>
<path d="M58 28L61.186 34L68 34.828L63 39.334L64 46L58 42.25L52 46L53 39.334L48 34.828L55 34L58 28ZM52 68H48V58C47.9968 55.3488 46.9422 52.8071 45.0676 50.9324C43.1929 49.0578 40.6512 48.0032 38 48H26C23.3488 48.0032 20.8071 49.0578 18.9324 50.9324C17.0578 52.8071 16.0032 55.3488 16 58V68H12V58C12.0053 54.2886 13.482 50.7307 16.1063 48.1063C18.7307 45.482 22.2886 44.0053 26 44H38C41.7114 44.0053 45.2693 45.482 47.8937 48.1063C50.518 50.7307 51.9947 54.2886 52 58V68ZM32 16C33.9778 16 35.9112 16.5865 37.5557 17.6853C39.2002 18.7841 40.4819 20.3459 41.2388 22.1732C41.9957 24.0004 42.1937 26.0111 41.8079 27.9509C41.422 29.8907 40.4696 31.6725 39.0711 33.0711C37.6725 34.4696 35.8907 35.422 33.9509 35.8079C32.0111 36.1937 30.0004 35.9957 28.1732 35.2388C26.3459 34.4819 24.7841 33.2002 23.6853 31.5557C22.5865 29.9112 22 27.9778 22 26C22 23.3478 23.0536 20.8043 24.9289 18.9289C26.8043 17.0536 29.3478 16 32 16ZM32 12C29.2311 12 26.5243 12.8211 24.222 14.3594C21.9197 15.8978 20.1253 18.0843 19.0657 20.6424C18.0061 23.2006 17.7288 26.0155 18.269 28.7313C18.8092 31.447 20.1426 33.9416 22.1005 35.8995C24.0584 37.8574 26.553 39.1908 29.2687 39.731C31.9845 40.2712 34.7994 39.9939 37.3576 38.9343C39.9157 37.8747 42.1022 36.0803 43.6406 33.778C45.1789 31.4757 46 28.7689 46 26C46 22.287 44.525 18.726 41.8995 16.1005C39.274 13.475 35.713 12 32 12Z" fill="#FCF7F2"/>
</svg>
