<svg width="72" height="72" viewBox="0 0 72 72" fill="none" xmlns="http://www.w3.org/2000/svg">
<path fill-rule="evenodd" clip-rule="evenodd" d="M21.6001 9.6001C18.4175 9.6001 15.3653 10.8644 13.1148 13.1148C10.8644 15.3653 9.6001 18.4175 9.6001 21.6001C9.6001 24.7827 10.8644 27.8349 13.1148 30.0854C15.3653 32.3358 18.4175 33.6001 21.6001 33.6001C24.7827 33.6001 27.8349 32.3358 30.0854 30.0854C32.3358 27.8349 33.6001 24.7827 33.6001 21.6001C33.6001 18.4175 32.3358 15.3653 30.0854 13.1148C27.8349 10.8644 24.7827 9.6001 21.6001 9.6001ZM14.4001 21.6001C14.4001 19.6905 15.1587 17.8592 16.5089 16.5089C17.8592 15.1587 19.6905 14.4001 21.6001 14.4001C23.5097 14.4001 25.341 15.1587 26.6913 16.5089C28.0415 17.8592 28.8001 19.6905 28.8001 21.6001C28.8001 23.5097 28.0415 25.341 26.6913 26.6913C25.341 28.0415 23.5097 28.8001 21.6001 28.8001C19.6905 28.8001 17.8592 28.0415 16.5089 26.6913C15.1587 25.341 14.4001 23.5097 14.4001 21.6001ZM50.4001 9.6001C47.2175 9.6001 44.1653 10.8644 41.9148 13.1148C39.6644 15.3653 38.4001 18.4175 38.4001 21.6001C38.4001 24.7827 39.6644 27.8349 41.9148 30.0854C44.1653 32.3358 47.2175 33.6001 50.4001 33.6001C53.5827 33.6001 56.6349 32.3358 58.8854 30.0854C61.1358 27.8349 62.4001 24.7827 62.4001 21.6001C62.4001 18.4175 61.1358 15.3653 58.8854 13.1148C56.6349 10.8644 53.5827 9.6001 50.4001 9.6001ZM43.2001 21.6001C43.2001 19.6905 43.9587 17.8592 45.3089 16.5089C46.6592 15.1587 48.4905 14.4001 50.4001 14.4001C52.3097 14.4001 54.141 15.1587 55.4913 16.5089C56.8415 17.8592 57.6001 19.6905 57.6001 21.6001C57.6001 23.5097 56.8415 25.341 55.4913 26.6913C54.141 28.0415 52.3097 28.8001 50.4001 28.8001C48.4905 28.8001 46.6592 28.0415 45.3089 26.6913C43.9587 25.341 43.2001 23.5097 43.2001 21.6001ZM9.6001 50.4001C9.6001 47.2175 10.8644 44.1653 13.1148 41.9148C15.3653 39.6644 18.4175 38.4001 21.6001 38.4001C24.7827 38.4001 27.8349 39.6644 30.0854 41.9148C32.3358 44.1653 33.6001 47.2175 33.6001 50.4001C33.6001 53.5827 32.3358 56.6349 30.0854 58.8854C27.8349 61.1358 24.7827 62.4001 21.6001 62.4001C18.4175 62.4001 15.3653 61.1358 13.1148 58.8854C10.8644 56.6349 9.6001 53.5827 9.6001 50.4001ZM21.6001 43.2001C19.6905 43.2001 17.8592 43.9587 16.5089 45.3089C15.1587 46.6592 14.4001 48.4905 14.4001 50.4001C14.4001 52.3097 15.1587 54.141 16.5089 55.4913C17.8592 56.8415 19.6905 57.6001 21.6001 57.6001C23.5097 57.6001 25.341 56.8415 26.6913 55.4913C28.0415 54.141 28.8001 52.3097 28.8001 50.4001C28.8001 48.4905 28.0415 46.6592 26.6913 45.3089C25.341 43.9587 23.5097 43.2001 21.6001 43.2001ZM50.4001 38.4001C47.2175 38.4001 44.1653 39.6644 41.9148 41.9148C39.6644 44.1653 38.4001 47.2175 38.4001 50.4001C38.4001 53.5827 39.6644 56.6349 41.9148 58.8854C44.1653 61.1358 47.2175 62.4001 50.4001 62.4001C53.5827 62.4001 56.6349 61.1358 58.8854 58.8854C61.1358 56.6349 62.4001 53.5827 62.4001 50.4001C62.4001 47.2175 61.1358 44.1653 58.8854 41.9148C56.6349 39.6644 53.5827 38.4001 50.4001 38.4001ZM43.2001 50.4001C43.2001 48.4905 43.9587 46.6592 45.3089 45.3089C46.6592 43.9587 48.4905 43.2001 50.4001 43.2001C52.3097 43.2001 54.141 43.9587 55.4913 45.3089C56.8415 46.6592 57.6001 48.4905 57.6001 50.4001C57.6001 52.3097 56.8415 54.141 55.4913 55.4913C54.141 56.8415 52.3097 57.6001 50.4001 57.6001C48.4905 57.6001 46.6592 56.8415 45.3089 55.4913C43.9587 54.141 43.2001 52.3097 43.2001 50.4001Z" fill="#FF6B01"/>
</svg>
