<svg width="50" height="56" viewBox="0 0 50 56" fill="none" xmlns="http://www.w3.org/2000/svg">
<path d="M32.9946 35.9173V39.6666C32.9946 46.7386 32.9946 50.272 30.6506 52.4693C28.3093 54.6666 24.536 54.6666 16.9946 54.6666C9.4533 54.6666 5.67996 54.6666 3.33863 52.4693C0.994629 50.2746 0.994629 46.736 0.994629 39.6693V26.8106C0.994629 19.7386 0.994629 16.2026 3.33863 14.0053C4.89063 12.552 6.9333 12.1493 8.99463 12.04M16.9946 46.6666H17.0186" stroke="#FCF7F2" stroke-width="1.5" stroke-linecap="round" stroke-linejoin="round"/>
<path d="M32.9946 5.33331C27.376 2.18131 23.9946 1.57331 19.6613 1.33331C17.936 1.64531 17.392 2.26931 16.9946 3.99998V20C16.9813 22.4373 17.5226 23.3493 19.6613 24C25.4666 24.928 28.248 25.768 32.6666 27.8453C32.8746 27.944 33.12 27.9466 33.3306 27.856C37.5946 26.0266 40.3493 25.0026 43.512 24.408C45.3706 24.0613 47.68 24.0346 48.6 22.3866C48.9253 21.808 49.0346 21.0586 48.9946 20V3.99998C48.4506 2.28265 47.8666 1.70398 46.328 1.33331C41.6453 1.59198 38.8133 2.25331 32.9946 5.33331ZM32.9946 5.33331V26.6666" stroke="#FCF7F2" stroke-width="1.5" stroke-linecap="round" stroke-linejoin="round"/>
</svg>
