<svg width="76" height="62" viewBox="0 0 76 62" fill="none" xmlns="http://www.w3.org/2000/svg">
<path d="M64.2793 0.374054C64.3309 0.381866 64.1449 0.388742 63.7616 0.388742C60.8691 0.388742 58.171 3.52312 58.171 7.81062C58.171 9.97155 58.9073 11.9056 59.9873 13.245L61.5837 15.2178L59.074 15.6037C57.424 15.8564 56.3141 16.6087 55.3826 17.8447C54.451 19.0806 53.7663 20.8416 53.3123 22.8984C52.502 26.5691 52.4388 31.0898 52.4334 35.1103H57.1893L57.282 36.4728L58.3904 53.128H68.6737L69.9284 36.4576L70.031 35.1101H75.031C74.9935 31.1441 74.7779 26.6831 73.8835 23.0398C73.3815 20.9951 72.6674 19.2345 71.7449 17.9812C70.8223 16.7281 69.7605 15.9734 68.2974 15.7011L65.8412 15.2422L67.4479 13.3281C68.5773 11.9808 69.352 10.0253 69.352 7.81046C69.352 3.78858 66.9301 0.715772 64.3082 0.378897L64.2788 0.37421L64.2793 0.374054ZM26.0371 0.901398C18.8652 0.902335 10.4365 1.74093 0.783203 3.69905V6.68749C42.661 0.804991 54.1496 12.6484 36.1348 19.085C17.8024 25.635 3.24367 58.5003 61.042 61.3653C61.7235 61.4337 62.4248 61.4726 63.1413 61.4726C66.6226 61.4726 69.757 60.6208 71.9109 59.3486C74.0651 58.0767 75.1288 56.5142 75.1288 54.9884C75.1288 53.4627 74.0651 51.9003 71.911 50.6281C71.8751 50.6066 71.8357 50.5856 71.799 50.5644L71.4865 54.7003L71.3838 56.0528H55.6562L55.5682 54.6856L55.0557 46.9512C35.0254 47.3887 29.547 31.2466 42.541 26.5653C45.7262 25.4178 48.3357 24.0909 50.3827 22.6544C50.4093 22.5259 50.4327 22.3958 50.4609 22.2684C50.9706 19.96 51.7509 17.8156 53.0537 16.0869C53.8265 15.0614 54.8099 14.2009 55.9787 13.5916C55.4905 6.94359 45.3013 0.898429 26.037 0.901398H26.0371Z" fill="#FCF7F2"/>
</svg>
